<?xml version="1.0" encoding="UTF-8" standalone="no"?>
<!-- Created with Inkscape (http://www.inkscape.org/) -->

<svg
   width="129.43402mm"
   height="137.325mm"
   viewBox="0 0 129.43402 137.325"
   version="1.1"
   id="svg5"
   xml:space="preserve"
   inkscape:export-filename="bitmap.svg"
   inkscape:export-xdpi="93.260094"
   inkscape:export-ydpi="93.260094"
   sodipodi:docname="reading-overview-symbolic.svg"
   inkscape:version="1.3 (0e150ed6c4, 2023-07-21)"
   xmlns:inkscape="http://www.inkscape.org/namespaces/inkscape"
   xmlns:sodipodi="http://sodipodi.sourceforge.net/DTD/sodipodi-0.dtd"
   xmlns:xlink="http://www.w3.org/1999/xlink"
   xmlns="http://www.w3.org/2000/svg"
   xmlns:svg="http://www.w3.org/2000/svg"><sodipodi:namedview
     id="namedview7"
     pagecolor="#ffffff"
     bordercolor="#000000"
     borderopacity="0.25"
     inkscape:showpageshadow="2"
     inkscape:pageopacity="0"
     inkscape:pagecheckerboard="true"
     inkscape:deskcolor="#aaaaaa"
     inkscape:document-units="mm"
     showgrid="false"
     inkscape:zoom="1.0418678"
     inkscape:cx="149.73109"
     inkscape:cy="180.92507"
     inkscape:window-width="1920"
     inkscape:window-height="1011"
     inkscape:window-x="0"
     inkscape:window-y="32"
     inkscape:window-maximized="1"
     inkscape:current-layer="layer1"
     inkscape:export-bgcolor="#ffffff00"><inkscape:grid
       id="grid11"
       units="mm"
       originx="0"
       originy="0"
       spacingx="0.99999996"
       spacingy="1"
       empcolor="#0099e5"
       empopacity="0.30196078"
       color="#0099e5"
       opacity="0.14901961"
       empspacing="5"
       dotted="false"
       gridanglex="30"
       gridanglez="30"
       visible="false" /></sodipodi:namedview><defs
     id="defs2"><linearGradient
       id="linearGradient8"
       inkscape:collect="always"><stop
         style="stop-color:#ad0000;stop-opacity:1;"
         offset="0"
         id="stop8" /><stop
         style="stop-color:#6f0000;stop-opacity:1;"
         offset="1"
         id="stop9" /></linearGradient><linearGradient
       id="linearGradient3"
       inkscape:collect="always"><stop
         style="stop-color:#3e3328;stop-opacity:1;"
         offset="0"
         id="stop3" /><stop
         style="stop-color:#917763;stop-opacity:1;"
         offset="1"
         id="stop4" /></linearGradient><inkscape:path-effect
       effect="fillet_chamfer"
       id="path-effect3"
       is_visible="true"
       lpeversion="1"
       nodesatellites_param="F,0,0,1,0,0,0,1 @ F,0,0,1,0,0,0,1 @ F,0,0,1,0,0,0,1 @ F,0,0,1,0,0,0,1 @ F,0,0,1,0,0,0,1 @ F,0,0,1,0,0,0,1 @ F,0,0,1,0,0,0,1 @ F,0,0,1,0,0,0,1 @ F,0,0,1,0,0,0,1 @ F,0,0,1,0,0,0,1 @ F,0,0,1,0,0,0,1 @ F,0,0,1,0,0,0,1 @ F,0,0,1,0,0,0,1 @ F,0,0,1,0,0,0,1 @ F,0,0,1,0,0,0,1 @ F,0,0,1,0,0,0,1 @ F,0,0,1,0,0,0,1 @ F,0,0,1,0,0,0,1 @ F,0,0,1,0,0,0,1 @ F,0,0,1,0,0,0,1 @ F,0,0,1,0,0,0,1 @ F,0,0,1,0,0,0,1 @ F,0,0,1,0,0,0,1 @ F,0,0,1,0,0,0,1 @ F,0,0,1,0,0,0,1 @ F,0,0,1,0,0,0,1 @ F,0,0,1,0,0,0,1 @ F,0,0,1,0,0,0,1 @ F,0,0,1,0,0,0,1 @ F,0,0,1,0,0,0,1 @ F,0,0,1,0,0,0,1 @ F,0,0,1,0,0,0,1 @ F,0,0,1,0,0,0,1 @ F,0,0,1,0,0,0,1 @ F,0,0,1,0,0,0,1 @ F,0,0,1,0,0,0,1 @ F,0,0,1,0,0,0,1 @ F,0,0,1,0,0,0,1 @ F,0,0,1,0,0,0,1 @ F,0,0,1,0,0,0,1 @ F,0,0,1,0,0,0,1 @ F,0,0,1,0,0,0,1 @ F,0,0,1,0,0,0,1 @ F,0,0,1,0,0,0,1 @ F,0,0,1,0,0,0,1 @ F,0,0,1,0,0,0,1 @ F,0,0,1,0,0,0,1 @ F,0,0,1,0,0,0,1 @ F,0,0,1,0,0,0,1 @ F,0,0,1,0,0,0,1 @ F,0,0,1,0,0,0,1 @ F,0,0,1,0,0,0,1 @ F,0,0,1,0,0,0,1 @ F,0,0,1,0,0,0,1 @ F,0,0,1,0,0,0,1 @ F,0,0,1,0,0,0,1 @ F,0,0,1,0,0,0,1 @ F,0,0,1,0,0,0,1 @ F,0,0,1,0,0,0,1 @ F,0,0,1,0,0,0,1 @ F,0,0,1,0,0,0,1 @ F,0,0,1,0,0,0,1 @ F,0,0,1,0,0,0,1 @ F,0,0,1,0,0,0,1 @ F,0,0,1,0,0,0,1 @ F,0,0,1,0,0,0,1"
       radius="0"
       unit="px"
       method="auto"
       mode="F"
       chamfer_steps="1"
       flexible="false"
       use_knot_distance="true"
       apply_no_radius="true"
       apply_with_radius="true"
       only_selected="false"
       hide_knots="false" /><inkscape:path-effect
       effect="fillet_chamfer"
       id="path-effect2"
       is_visible="true"
       lpeversion="1"
       nodesatellites_param="F,0,0,1,0,0,0,1 @ F,0,0,1,0,0,0,1 @ F,0,0,1,0,3.4801201,0,1 @ F,0,0,1,0,0.95188461,0,1 @ F,0,0,1,0,0,0,1 @ F,0,0,1,0,0,0,1 @ F,0,0,1,0,0,0,1 @ F,0,0,1,0,0,0,1 @ F,0,0,1,0,0,0,1 @ F,0,0,1,0,0,0,1"
       radius="0"
       unit="px"
       method="auto"
       mode="F"
       chamfer_steps="1"
       flexible="false"
       use_knot_distance="true"
       apply_no_radius="true"
       apply_with_radius="true"
       only_selected="false"
       hide_knots="false" /><inkscape:path-effect
       effect="fillet_chamfer"
       id="path-effect1"
       is_visible="true"
       lpeversion="1"
       nodesatellites_param="F,0,0,1,0,0,0,1 @ F,0,0,1,0,0,0,1 @ F,0,0,1,0,0,0,1 @ F,0,0,1,0,2.2193071,0,1 @ F,0,0,1,0,0,0,1 @ F,0,0,1,0,0,0,1 @ F,0,0,1,0,0,0,1 @ F,0,0,1,0,0,0,1 @ F,0,0,1,0,0,0,1 @ F,0,0,1,0,0,0,1"
       radius="0"
       unit="px"
       method="auto"
       mode="F"
       chamfer_steps="1"
       flexible="false"
       use_knot_distance="true"
       apply_no_radius="true"
       apply_with_radius="true"
       only_selected="false"
       hide_knots="false" /><linearGradient
       id="swatch35"
       inkscape:swatch="solid"><stop
         style="stop-color:#000000;stop-opacity:1;"
         offset="0"
         id="stop35" /></linearGradient><inkscape:path-effect
       effect="powerclip"
       id="path-effect34"
       is_visible="true"
       lpeversion="1"
       inverse="true"
       flatten="false"
       hide_clip="false"
       message="Use fill-rule evenodd on &lt;b&gt;fill and stroke&lt;/b&gt; dialog if no flatten result after convert clip to paths." /><inkscape:path-effect
       effect="powerclip"
       id="path-effect21"
       is_visible="true"
       lpeversion="1"
       inverse="true"
       flatten="false"
       hide_clip="false"
       message="Use fill-rule evenodd on &lt;b&gt;fill and stroke&lt;/b&gt; dialog if no flatten result after convert clip to paths." /><linearGradient
       id="swatch13"
       inkscape:swatch="solid"><stop
         style="stop-color:#000000;stop-opacity:1;"
         offset="0"
         id="stop13" /></linearGradient><rect
       x="153.30677"
       y="134.21527"
       width="166.44588"
       height="205.40865"
       id="rect8" /><clipPath
       clipPathUnits="userSpaceOnUse"
       id="clipPath13"><g
         inkscape:label="Clip"
         id="use13"
         style="fill:#d2ad7f;fill-opacity:1;fill-rule:nonzero;stroke:none" /></clipPath><filter
       id="mask-powermask-path-effect25_inverse"
       inkscape:label="filtermask-powermask-path-effect25"
       style="color-interpolation-filters:sRGB"
       height="100"
       width="100"
       x="-50"
       y="-50"><feColorMatrix
         id="mask-powermask-path-effect25_primitive1"
         values="1"
         type="saturate"
         result="fbSourceGraphic" /><feColorMatrix
         id="mask-powermask-path-effect25_primitive2"
         values="-1 0 0 0 1 0 -1 0 0 1 0 0 -1 0 1 0 0 0 1 0 "
         in="fbSourceGraphic" /></filter><filter
       id="mask-powermask-path-effect27_inverse"
       inkscape:label="filtermask-powermask-path-effect27"
       style="color-interpolation-filters:sRGB"
       height="100"
       width="100"
       x="-50"
       y="-50"><feColorMatrix
         id="mask-powermask-path-effect27_primitive1"
         values="1"
         type="saturate"
         result="fbSourceGraphic" /><feColorMatrix
         id="mask-powermask-path-effect27_primitive2"
         values="-1 0 0 0 1 0 -1 0 0 1 0 0 -1 0 1 0 0 0 1 0 "
         in="fbSourceGraphic" /></filter><filter
       id="mask-powermask-path-effect31_inverse"
       inkscape:label="filtermask-powermask-path-effect31"
       style="color-interpolation-filters:sRGB"
       height="100"
       width="100"
       x="-50"
       y="-50"><feColorMatrix
         id="mask-powermask-path-effect31_primitive1"
         values="1"
         type="saturate"
         result="fbSourceGraphic" /><feColorMatrix
         id="mask-powermask-path-effect31_primitive2"
         values="-1 0 0 0 1 0 -1 0 0 1 0 0 -1 0 1 0 0 0 1 0 "
         in="fbSourceGraphic" /></filter><linearGradient
       inkscape:collect="always"
       xlink:href="#linearGradient3"
       id="linearGradient4"
       x1="114.02682"
       y1="152.64653"
       x2="114.31027"
       y2="46.7131"
       gradientUnits="userSpaceOnUse" /><linearGradient
       inkscape:collect="always"
       xlink:href="#linearGradient3"
       id="linearGradient6"
       x1="114.02682"
       y1="152.64653"
       x2="114.31027"
       y2="46.7131"
       gradientUnits="userSpaceOnUse" /><linearGradient
       inkscape:collect="always"
       xlink:href="#linearGradient8"
       id="linearGradient9"
       x1="72.420799"
       y1="165.83786"
       x2="75.311707"
       y2="143.89102"
       gradientUnits="userSpaceOnUse" /></defs><g
     inkscape:label="Layer 1"
     inkscape:groupmode="layer"
     id="layer1"
     transform="translate(-45.685513,-33.149628)"
     style="display:inline"><g
       id="g8"
       style="mix-blend-mode:normal;stroke-width:1.0002;stroke-dasharray:none"
       transform="matrix(1.0977814,0,0,1.0977814,-15.753744,-8.1494173)"><path
         d="m 85.019547,46.65423 c -0.484393,0 -1.130329,0.03833 -1.696603,0.111541 -1.02387,0.132374 -2.436984,0.44703 -3.758878,0.984516 -0.420927,0.17115 -0.827183,0.372695 -1.223697,0.587561 -0.396515,0.214867 -0.781407,0.448269 -1.153418,0.699182 -0.372012,0.250914 -0.73122,0.519435 -1.076421,0.804086 -0.3452,0.284651 -0.676107,0.585673 -0.992187,0.901753 -0.31608,0.31608 -0.617103,0.647504 -0.901754,0.992705 -0.284651,0.3452 -0.553172,0.704408 -0.804085,1.07642 -0.250913,0.372011 -0.484316,0.756387 -0.699182,1.152901 -0.214867,0.396514 -0.41105,0.80499 -0.587561,1.223698 -0.176511,0.418708 -0.333376,0.847634 -0.469222,1.286226 -0.135847,0.438593 -0.250775,0.886902 -0.343648,1.343071 -0.09287,0.456168 -0.163766,0.92021 -0.211357,1.391646 -0.04759,0.471436 -0.07183,0.950144 -0.07183,1.434538 v 78.233466 c 0,0.4844 0.02424,0.96259 0.07183,1.43402 0.04759,0.47144 0.118483,0.936 0.211357,1.39217 0.09287,0.45616 0.207801,0.90396 0.343648,1.34255 0.135846,0.43859 0.292711,0.86803 0.469222,1.28674 0.176511,0.41871 0.372694,0.82667 0.587561,1.22318 0.214866,0.39652 0.448269,0.78141 0.699182,1.15342 0.250913,0.37201 0.519434,0.73122 0.804085,1.07642 0.284651,0.3452 0.585674,0.67663 0.901754,0.99271 0.31608,0.31608 0.646987,0.6171 0.992187,0.90175 0.345201,0.28465 0.704409,0.55265 1.076421,0.80357 0.372011,0.25091 0.756903,0.48431 1.153418,0.69918 0.396514,0.21487 0.80499,0.41157 1.223697,0.58808 0.418708,0.17651 0.847634,0.33286 1.286227,0.4687 0.438592,0.13585 0.886902,0.25078 1.34307,0.34365 0.456169,0.0929 0.920211,0.16377 1.391647,0.21136 0.471435,0.0476 0.950144,0.0724 1.434537,0.0724 h 57.838333 c 0.48439,0 0.9631,-0.0248 1.43454,-0.0724 0.47143,-0.0476 0.93547,-0.11849 1.39164,-0.21136 0.45617,-0.0929 0.90448,-0.2078 1.34307,-0.34365 0.43859,-0.13584 0.86752,-0.29219 1.28623,-0.4687 0.41871,-0.17651 0.82718,-0.37321 1.2237,-0.58808 0.39651,-0.21487 0.7814,-0.44827 1.15341,-0.69918 0.37202,-0.25092 0.73122,-0.51892 1.07642,-0.80357 0.3452,-0.28465 0.67611,-0.58567 0.99219,-0.90175 0.31608,-0.31608 0.6171,-0.64751 0.90176,-0.99271 0.28465,-0.3452 0.55317,-0.70441 0.80408,-1.07642 0.25091,-0.37201 0.48432,-0.7569 0.69918,-1.15342 0.21487,-0.39651 0.41105,-0.80447 0.58756,-1.22318 0.17651,-0.41871 0.33338,-0.84815 0.46923,-1.28674 0.13584,-0.43859 0.25077,-0.88639 0.34364,-1.34255 0.0929,-0.45617 0.16377,-0.92073 0.21136,-1.39217 0.0476,-0.47143 0.0718,-0.94962 0.0718,-1.43402 V 60.644074 c 0,-0.484394 -0.0242,-0.963102 -0.0718,-1.434538 -0.0476,-0.471436 -0.11848,-0.935478 -0.21136,-1.391646 -0.0929,-0.456169 -0.2078,-0.904478 -0.34364,-1.343071 -0.13585,-0.438592 -0.29272,-0.867518 -0.46923,-1.286226 -0.17651,-0.418708 -0.37269,-0.827184 -0.58756,-1.223698 -0.21486,-0.396514 -0.44827,-0.78089 -0.69918,-1.152901 -0.25091,-0.372012 -0.51943,-0.73122 -0.80408,-1.07642 -0.28466,-0.345201 -0.58568,-0.676625 -0.90176,-0.992705 -0.31608,-0.31608 -0.64699,-0.617102 -0.99219,-0.901753 -0.3452,-0.284651 -0.7044,-0.553172 -1.07642,-0.804086 -0.37201,-0.250913 -0.7569,-0.484315 -1.15341,-0.699182 -0.39652,-0.214866 -0.80499,-0.41105 -1.2237,-0.587561 -0.41871,-0.176511 -0.84764,-0.333375 -1.28623,-0.469222 -0.43859,-0.135846 -0.8869,-0.250775 -1.34307,-0.343648 -0.45617,-0.09287 -0.92021,-0.163766 -1.39164,-0.211357 -0.47144,-0.04759 -0.95015,-0.07183 -1.43454,-0.07183 z"
         style="display:inline;fill:url(#linearGradient4);stroke:url(#linearGradient6);stroke-width:1.0002;stroke-linecap:round;stroke-linejoin:round;stroke-miterlimit:67.1;stroke-dasharray:none;stroke-opacity:1"
         id="path10"
         sodipodi:nodetypes="ssssssssssssssssssssssssssssscsssscssssssssssssssssssssssssssssssss"
         inkscape:path-effect="#path-effect3"
         inkscape:original-d="m 85.019547,46.65423 c -0.484393,0 -1.130329,0.03833 -1.696603,0.111541 -1.02387,0.132374 -2.436984,0.44703 -3.758878,0.984516 -0.420927,0.17115 -0.827183,0.372695 -1.223697,0.587561 -0.396515,0.214867 -0.781407,0.448269 -1.153418,0.699182 -0.372012,0.250914 -0.73122,0.519435 -1.076421,0.804086 -0.3452,0.284651 -0.676107,0.585673 -0.992187,0.901753 -0.31608,0.31608 -0.617103,0.647504 -0.901754,0.992705 -0.284651,0.3452 -0.553172,0.704408 -0.804085,1.07642 -0.250913,0.372011 -0.484316,0.756387 -0.699182,1.152901 -0.214867,0.396514 -0.41105,0.80499 -0.587561,1.223698 -0.176511,0.418708 -0.333376,0.847634 -0.469222,1.286226 -0.135847,0.438593 -0.250775,0.886902 -0.343648,1.343071 -0.09287,0.456168 -0.163766,0.92021 -0.211357,1.391646 -0.04759,0.471436 -0.07183,0.950144 -0.07183,1.434538 v 78.233466 c 0,0.4844 0.02424,0.96259 0.07183,1.43402 0.04759,0.47144 0.118483,0.936 0.211357,1.39217 0.09287,0.45616 0.207801,0.90396 0.343648,1.34255 0.135846,0.43859 0.292711,0.86803 0.469222,1.28674 0.176511,0.41871 0.372694,0.82667 0.587561,1.22318 0.214866,0.39652 0.448269,0.78141 0.699182,1.15342 0.250913,0.37201 0.519434,0.73122 0.804085,1.07642 0.284651,0.3452 0.585674,0.67663 0.901754,0.99271 0.31608,0.31608 0.646987,0.6171 0.992187,0.90175 0.345201,0.28465 0.704409,0.55265 1.076421,0.80357 0.372011,0.25091 0.756903,0.48431 1.153418,0.69918 0.396514,0.21487 0.80499,0.41157 1.223697,0.58808 0.418708,0.17651 0.847634,0.33286 1.286227,0.4687 0.438592,0.13585 0.886902,0.25078 1.34307,0.34365 0.456169,0.0929 0.920211,0.16377 1.391647,0.21136 0.471435,0.0476 0.950144,0.0724 1.434537,0.0724 h 57.838333 c 0.48439,0 0.9631,-0.0248 1.43454,-0.0724 0.47143,-0.0476 0.93547,-0.11849 1.39164,-0.21136 0.45617,-0.0929 0.90448,-0.2078 1.34307,-0.34365 0.43859,-0.13584 0.86752,-0.29219 1.28623,-0.4687 0.41871,-0.17651 0.82718,-0.37321 1.2237,-0.58808 0.39651,-0.21487 0.7814,-0.44827 1.15341,-0.69918 0.37202,-0.25092 0.73122,-0.51892 1.07642,-0.80357 0.3452,-0.28465 0.67611,-0.58567 0.99219,-0.90175 0.31608,-0.31608 0.6171,-0.64751 0.90176,-0.99271 0.28465,-0.3452 0.55317,-0.70441 0.80408,-1.07642 0.25091,-0.37201 0.48432,-0.7569 0.69918,-1.15342 0.21487,-0.39651 0.41105,-0.80447 0.58756,-1.22318 0.17651,-0.41871 0.33338,-0.84815 0.46923,-1.28674 0.13584,-0.43859 0.25077,-0.88639 0.34364,-1.34255 0.0929,-0.45617 0.16377,-0.92073 0.21136,-1.39217 0.0476,-0.47143 0.0718,-0.94962 0.0718,-1.43402 V 60.644074 c 0,-0.484394 -0.0242,-0.963102 -0.0718,-1.434538 -0.0476,-0.471436 -0.11848,-0.935478 -0.21136,-1.391646 -0.0929,-0.456169 -0.2078,-0.904478 -0.34364,-1.343071 -0.13585,-0.438592 -0.29272,-0.867518 -0.46923,-1.286226 -0.17651,-0.418708 -0.37269,-0.827184 -0.58756,-1.223698 -0.21486,-0.396514 -0.44827,-0.78089 -0.69918,-1.152901 -0.25091,-0.372012 -0.51943,-0.73122 -0.80408,-1.07642 -0.28466,-0.345201 -0.58568,-0.676625 -0.90176,-0.992705 -0.31608,-0.31608 -0.64699,-0.617102 -0.99219,-0.901753 -0.3452,-0.284651 -0.7044,-0.553172 -1.07642,-0.804086 -0.37201,-0.250913 -0.7569,-0.484315 -1.15341,-0.699182 -0.39652,-0.214866 -0.80499,-0.41105 -1.2237,-0.587561 -0.41871,-0.176511 -0.84764,-0.333375 -1.28623,-0.469222 -0.43859,-0.135846 -0.8869,-0.250775 -1.34307,-0.343648 -0.45617,-0.09287 -0.92021,-0.163766 -1.39164,-0.211357 -0.47144,-0.04759 -0.95015,-0.07183 -1.43454,-0.07183 z" /><path
         id="path2"
         style="mix-blend-mode:normal;fill:#d2ad7f;stroke:none;stroke-width:1.0002;stroke-linecap:square;stroke-linejoin:miter;stroke-dasharray:none;stroke-opacity:1;paint-order:normal;fill-opacity:1"
         d="m 85.182736,128.63591 h 25.641194 c 0,0 22.29852,0.22445 32.43389,-0.0228 1.91891,-0.0468 4.97151,-0.63382 6.60182,-1.64601 3.44003,-2.13577 4.13173,-4.62968 4.23229,-5.95927 0.0396,-0.52293 0.0244,-0.65036 0.0304,-0.27886 0.009,0.57384 0.0172,1.45851 0.0291,2.6709 0.0332,3.38345 0.006,13.1076 -0.28047,15.87661 -0.61439,5.93008 -4.9818,10.64055 -11.16995,10.64055 H 85.182736 c -6.188152,0 -11.169949,-4.74569 -11.169949,-10.64055 0,-5.89487 4.981797,-10.64056 11.169949,-10.64056 z"
         sodipodi:nodetypes="scccsssssss"
         clip-path="none"
         inkscape:path-effect="#path-effect2"
         inkscape:original-d="m 85.182736,128.63591 h 25.641194 c 0,0 29.05168,0.29243 35.90678,-0.15797 8.37753,-3.15121 7.33437,-8.41928 7.33437,-8.41928 0.0523,-0.54203 0.0584,0.49915 0.0863,3.34121 0.0332,3.38345 0.006,13.1076 -0.28047,15.87661 -0.61439,5.93008 -4.9818,10.64055 -11.16995,10.64055 H 85.182736 c -6.188152,0 -11.169949,-4.74569 -11.169949,-10.64055 0,-5.89487 4.981797,-10.64056 11.169949,-10.64056 z" /></g><path
       style="display:inline;fill:url(#linearGradient9);fill-opacity:1;stroke:none;stroke-width:0;stroke-linecap:round;stroke-linejoin:round;stroke-miterlimit:67.1;stroke-dasharray:none;stroke-dashoffset:0;stroke-opacity:1;paint-order:markers fill stroke"
       id="path8"
       d="m 73.289945,143.97686 c -0.04693,0.58765 -0.152378,1.16875 -0.252297,1.74918 -0.126731,0.82463 -0.214251,1.65455 -0.313543,2.48289 -0.09161,0.66244 0.0021,1.31668 0.141254,1.96378 0.130446,0.57612 0.428594,1.0862 0.701587,1.60282 0.279142,0.5104 0.568329,1.01475 0.90122,1.4921 0.312024,0.40004 0.619592,0.79998 0.871803,1.24072 0.284128,0.55496 0.371473,1.18163 0.467463,1.79064 0.09597,0.78779 0.0052,1.58191 -0.240907,2.33314 -0.163679,0.39807 -0.319273,0.82191 -0.606044,1.15241 -0.147536,0.17004 -0.267584,0.24777 -0.445554,0.38472 -0.402382,0.31572 -0.833541,0.58611 -1.24339,0.89106 -0.460238,0.34693 -0.872782,0.75956 -1.256287,1.18918 -0.324682,0.421 -0.616057,0.87457 -0.887284,1.33297 -0.218871,0.39389 -0.297056,0.84369 -0.415876,1.27384 -0.04785,0.17213 -0.08429,0.3467 -0.130812,0.51913 l 3.811265,2.06249 v 0 c 0.04168,-0.17457 0.07031,-0.35067 0.109514,-0.52582 0.09999,-0.39836 0.189946,-0.80466 0.355578,-1.1816 0.23729,-0.44531 0.527716,-0.86244 0.832106,-1.26405 0.35479,-0.41912 0.766226,-0.78441 1.213054,-1.10355 0.416312,-0.29997 0.844373,-0.58302 1.229734,-0.924 0.216464,-0.18264 0.329791,-0.26087 0.509759,-0.48303 0.302892,-0.37389 0.471112,-0.83227 0.634955,-1.2778 0.129382,-0.37116 0.172321,-0.44946 0.245012,-0.83624 0.102445,-0.54505 0.10946,-1.10872 0.108571,-1.66093 -0.07743,-0.63659 -0.171375,-1.28342 -0.369894,-1.89371 -0.204649,-0.49238 -0.516051,-0.92065 -0.865119,-1.322 -0.348863,-0.45132 -0.633671,-0.94226 -0.924256,-1.43236 -0.259332,-0.49749 -0.559965,-0.97884 -0.742762,-1.51153 -0.17854,-0.60038 -0.279537,-1.21498 -0.239904,-1.84356 0.0762,-0.81944 0.161579,-1.64022 0.301103,-2.45138 0.115961,-0.57234 0.816993,-3.12879 0.942426,-3.69906 z"
       sodipodi:nodetypes="cccccccccscccccccscccccscsccccccccc" /><text
       xml:space="preserve"
       transform="matrix(0.54098692,0,0,0.54098692,-20.420929,-37.034901)"
       id="text8"
       style="font-size:42.6667px;line-height:1;text-align:center;white-space:pre;shape-inside:url(#rect8);shape-padding:37.3506;display:inline;fill:#e8b77c;fill-opacity:1;stroke:none;stroke-width:1.01481;stroke-linecap:square;stroke-linejoin:round;stroke-miterlimit:36.9;stroke-dasharray:none;stroke-dashoffset:0;stroke-opacity:1;paint-order:markers stroke fill"
       x="54.125042"
       y="0"><tspan
         x="194.6093"
         y="203.9831"
         id="tspan2"><tspan
           style="font-family:'TeX Gyre Chorus';-inkscape-font-specification:'TeX Gyre Chorus'"
           id="tspan1">Word </tspan></tspan><tspan
         x="221.1693"
         y="246.98113"
         id="tspan4"><tspan
           style="font-family:'TeX Gyre Chorus';-inkscape-font-specification:'TeX Gyre Chorus'"
           id="tspan3">of </tspan></tspan><tspan
         x="205.38259"
         y="289.97916"
         id="tspan6"><tspan
           style="font-family:'TeX Gyre Chorus';-inkscape-font-specification:'TeX Gyre Chorus'"
           id="tspan5">God</tspan></tspan></text><path
       style="display:none;opacity:1;fill:none;fill-opacity:1;stroke:#2a2219;stroke-width:1.62911;stroke-linecap:square;stroke-linejoin:miter;stroke-miterlimit:36.9;stroke-dasharray:none;stroke-dashoffset:0;stroke-opacity:1;paint-order:normal"
       id="path11"
       sodipodi:type="arc"
       sodipodi:cx="77.6455"
       sodipodi:cy="45.909973"
       sodipodi:rx="2.3454633"
       sodipodi:ry="2.2899039"
       sodipodi:start="3.1330609"
       sodipodi:end="4.7258611"
       sodipodi:arc-type="arc"
       d="m 75.300122,45.92951 a 2.3454633,2.2899039 0 0 1 0.690987,-1.642738 2.3454633,2.2899039 0 0 1 1.685989,-0.666495"
       sodipodi:open="true" /><path
       style="display:none;fill:none;fill-opacity:1;stroke:#2a2219;stroke-width:1.67654;stroke-linecap:square;stroke-linejoin:miter;stroke-miterlimit:36.9;stroke-dasharray:none;stroke-dashoffset:0;stroke-opacity:1;paint-order:normal"
       id="path11-5"
       sodipodi:type="arc"
       sodipodi:cx="46.330341"
       sodipodi:cy="-73.01796"
       sodipodi:rx="1.7893338"
       sodipodi:ry="2.2452559"
       sodipodi:start="2.8070875"
       sodipodi:end="4.6584481"
       sodipodi:arc-type="arc"
       d="m 44.640185,-72.280838 a 1.7893338,2.2452559 0 0 1 0.204497,-1.988486 1.7893338,2.2452559 0 0 1 1.389188,-0.990626"
       sodipodi:open="true"
       transform="rotate(90)" /><path
       style="display:none;fill:none;stroke:#2a2219;stroke-width:1.86662;stroke-dasharray:none;stroke-opacity:1"
       d="M 74.677846,43.335381 V 124.58933"
       id="path1" /></g></svg>
