<?xml version="1.0" encoding="UTF-8" standalone="no"?>
<!-- Created with Inkscape (http://www.inkscape.org/) -->

<svg
   width="129.43402mm"
   height="137.325mm"
   viewBox="0 0 129.43402 137.325"
   version="1.1"
   id="svg5"
   xml:space="preserve"
   inkscape:export-filename="bitmap.svg"
   inkscape:export-xdpi="93.260094"
   inkscape:export-ydpi="93.260094"
   sodipodi:docname="org.robertomorrison.wordofgod-symbolic.svg"
   inkscape:version="1.3 (0e150ed6c4, 2023-07-21)"
   xmlns:inkscape="http://www.inkscape.org/namespaces/inkscape"
   xmlns:sodipodi="http://sodipodi.sourceforge.net/DTD/sodipodi-0.dtd"
   xmlns="http://www.w3.org/2000/svg"
   xmlns:svg="http://www.w3.org/2000/svg"><sodipodi:namedview
     id="namedview7"
     pagecolor="#ffffff"
     bordercolor="#000000"
     borderopacity="0.25"
     inkscape:showpageshadow="2"
     inkscape:pageopacity="0"
     inkscape:pagecheckerboard="true"
     inkscape:deskcolor="#aaaaaa"
     inkscape:document-units="mm"
     showgrid="false"
     inkscape:zoom="0.71653614"
     inkscape:cx="107.46143"
     inkscape:cy="208.64265"
     inkscape:window-width="1920"
     inkscape:window-height="1011"
     inkscape:window-x="0"
     inkscape:window-y="32"
     inkscape:window-maximized="1"
     inkscape:current-layer="layer1"
     inkscape:export-bgcolor="#ffffff00"><inkscape:grid
       id="grid11"
       units="mm"
       originx="0"
       originy="0"
       spacingx="0.99999996"
       spacingy="1"
       empcolor="#0099e5"
       empopacity="0.30196078"
       color="#0099e5"
       opacity="0.14901961"
       empspacing="5"
       dotted="false"
       gridanglex="30"
       gridanglez="30"
       visible="false" /></sodipodi:namedview><defs
     id="defs2"><inkscape:path-effect
       effect="fillet_chamfer"
       id="path-effect3"
       is_visible="true"
       lpeversion="1"
       nodesatellites_param="F,0,0,1,0,0,0,1 @ F,0,0,1,0,0,0,1 @ F,0,0,1,0,0,0,1 @ F,0,0,1,0,0,0,1 @ F,0,0,1,0,0,0,1 @ F,0,0,1,0,0,0,1 @ F,0,0,1,0,0,0,1 @ F,0,0,1,0,0,0,1 @ F,0,0,1,0,0,0,1 @ F,0,0,1,0,0,0,1 @ F,0,0,1,0,0,0,1 @ F,0,0,1,0,0,0,1 @ F,0,0,1,0,0,0,1 @ F,0,0,1,0,0,0,1 @ F,0,0,1,0,0,0,1 @ F,0,0,1,0,0,0,1 @ F,0,0,1,0,0,0,1 @ F,0,0,1,0,0,0,1 @ F,0,0,1,0,0,0,1 @ F,0,0,1,0,0,0,1 @ F,0,0,1,0,0,0,1 @ F,0,0,1,0,0,0,1 @ F,0,0,1,0,0,0,1 @ F,0,0,1,0,0,0,1 @ F,0,0,1,0,0,0,1 @ F,0,0,1,0,0,0,1 @ F,0,0,1,0,0,0,1 @ F,0,0,1,0,0,0,1 @ F,0,0,1,0,0,0,1 @ F,0,0,1,0,0,0,1 @ F,0,0,1,0,0,0,1 @ F,0,0,1,0,0,0,1 @ F,0,0,1,0,0,0,1 @ F,0,0,1,0,0,0,1 @ F,0,0,1,0,0,0,1 @ F,0,0,1,0,0,0,1 @ F,0,0,1,0,0,0,1 @ F,0,0,1,0,0,0,1 @ F,0,0,1,0,0,0,1 @ F,0,0,1,0,0,0,1 @ F,0,0,1,0,0,0,1 @ F,0,0,1,0,0,0,1 @ F,0,0,1,0,0,0,1 @ F,0,0,1,0,0,0,1 @ F,0,0,1,0,0,0,1 @ F,0,0,1,0,0,0,1 @ F,0,0,1,0,0,0,1 @ F,0,0,1,0,0,0,1 @ F,0,0,1,0,0,0,1 @ F,0,0,1,0,0,0,1 @ F,0,0,1,0,0,0,1 @ F,0,0,1,0,0,0,1 @ F,0,0,1,0,0,0,1 @ F,0,0,1,0,0,0,1 @ F,0,0,1,0,0,0,1 @ F,0,0,1,0,0,0,1 @ F,0,0,1,0,0,0,1 @ F,0,0,1,0,0,0,1 @ F,0,0,1,0,0,0,1 @ F,0,0,1,0,0,0,1 @ F,0,0,1,0,0,0,1 @ F,0,0,1,0,0,0,1 @ F,0,0,1,0,0,0,1 @ F,0,0,1,0,0,0,1 @ F,0,0,1,0,0,0,1 @ F,0,0,1,0,0,0,1"
       radius="0"
       unit="px"
       method="auto"
       mode="F"
       chamfer_steps="1"
       flexible="false"
       use_knot_distance="true"
       apply_no_radius="true"
       apply_with_radius="true"
       only_selected="false"
       hide_knots="false" /><inkscape:path-effect
       effect="fillet_chamfer"
       id="path-effect2"
       is_visible="true"
       lpeversion="1"
       nodesatellites_param="F,0,0,1,0,0,0,1 @ F,0,0,1,0,0,0,1 @ F,0,0,1,0,3.4801201,0,1 @ F,0,0,1,0,0.95188461,0,1 @ F,0,0,1,0,0,0,1 @ F,0,0,1,0,0,0,1 @ F,0,0,1,0,0,0,1 @ F,0,0,1,0,0,0,1 @ F,0,0,1,0,0,0,1 @ F,0,0,1,0,0,0,1"
       radius="0"
       unit="px"
       method="auto"
       mode="F"
       chamfer_steps="1"
       flexible="false"
       use_knot_distance="true"
       apply_no_radius="true"
       apply_with_radius="true"
       only_selected="false"
       hide_knots="false" /><inkscape:path-effect
       effect="fillet_chamfer"
       id="path-effect1"
       is_visible="true"
       lpeversion="1"
       nodesatellites_param="F,0,0,1,0,0,0,1 @ F,0,0,1,0,0,0,1 @ F,0,0,1,0,0,0,1 @ F,0,0,1,0,2.2193071,0,1 @ F,0,0,1,0,0,0,1 @ F,0,0,1,0,0,0,1 @ F,0,0,1,0,0,0,1 @ F,0,0,1,0,0,0,1 @ F,0,0,1,0,0,0,1 @ F,0,0,1,0,0,0,1"
       radius="0"
       unit="px"
       method="auto"
       mode="F"
       chamfer_steps="1"
       flexible="false"
       use_knot_distance="true"
       apply_no_radius="true"
       apply_with_radius="true"
       only_selected="false"
       hide_knots="false" /><linearGradient
       id="swatch35"
       inkscape:swatch="solid"><stop
         style="stop-color:#000000;stop-opacity:1;"
         offset="0"
         id="stop35" /></linearGradient><inkscape:path-effect
       effect="powerclip"
       id="path-effect34"
       is_visible="true"
       lpeversion="1"
       inverse="true"
       flatten="false"
       hide_clip="false"
       message="Use fill-rule evenodd on &lt;b&gt;fill and stroke&lt;/b&gt; dialog if no flatten result after convert clip to paths." /><inkscape:path-effect
       effect="powerclip"
       id="path-effect21"
       is_visible="true"
       lpeversion="1"
       inverse="true"
       flatten="false"
       hide_clip="false"
       message="Use fill-rule evenodd on &lt;b&gt;fill and stroke&lt;/b&gt; dialog if no flatten result after convert clip to paths." /><linearGradient
       id="swatch13"
       inkscape:swatch="solid"><stop
         style="stop-color:#000000;stop-opacity:1;"
         offset="0"
         id="stop13" /></linearGradient><rect
       x="153.30677"
       y="134.21527"
       width="166.44588"
       height="205.40865"
       id="rect8" /><clipPath
       clipPathUnits="userSpaceOnUse"
       id="clipPath13"><g
         inkscape:label="Clip"
         id="use13"
         style="fill:#d2ad7f;fill-opacity:1;fill-rule:nonzero;stroke:none" /></clipPath><filter
       id="mask-powermask-path-effect25_inverse"
       inkscape:label="filtermask-powermask-path-effect25"
       style="color-interpolation-filters:sRGB"
       height="100"
       width="100"
       x="-50"
       y="-50"><feColorMatrix
         id="mask-powermask-path-effect25_primitive1"
         values="1"
         type="saturate"
         result="fbSourceGraphic" /><feColorMatrix
         id="mask-powermask-path-effect25_primitive2"
         values="-1 0 0 0 1 0 -1 0 0 1 0 0 -1 0 1 0 0 0 1 0 "
         in="fbSourceGraphic" /></filter><filter
       id="mask-powermask-path-effect27_inverse"
       inkscape:label="filtermask-powermask-path-effect27"
       style="color-interpolation-filters:sRGB"
       height="100"
       width="100"
       x="-50"
       y="-50"><feColorMatrix
         id="mask-powermask-path-effect27_primitive1"
         values="1"
         type="saturate"
         result="fbSourceGraphic" /><feColorMatrix
         id="mask-powermask-path-effect27_primitive2"
         values="-1 0 0 0 1 0 -1 0 0 1 0 0 -1 0 1 0 0 0 1 0 "
         in="fbSourceGraphic" /></filter><filter
       id="mask-powermask-path-effect31_inverse"
       inkscape:label="filtermask-powermask-path-effect31"
       style="color-interpolation-filters:sRGB"
       height="100"
       width="100"
       x="-50"
       y="-50"><feColorMatrix
         id="mask-powermask-path-effect31_primitive1"
         values="1"
         type="saturate"
         result="fbSourceGraphic" /><feColorMatrix
         id="mask-powermask-path-effect31_primitive2"
         values="-1 0 0 0 1 0 -1 0 0 1 0 0 -1 0 1 0 0 0 1 0 "
         in="fbSourceGraphic" /></filter></defs><g
     inkscape:label="Layer 1"
     inkscape:groupmode="layer"
     id="layer1"
     transform="translate(-45.685513,-33.149628)"
     style="display:inline"><g
       id="g8"
       style="mix-blend-mode:normal;stroke-width:3.46152708;stroke-dasharray:none;stroke:#000000;stroke-opacity:1;fill:none"
       transform="matrix(1.0977814,0,0,1.0977814,-15.753744,-8.1494173)"><path
         d="m 85.019547,46.65423 c -0.484393,0 -1.130329,0.03833 -1.696603,0.111541 -1.02387,0.132374 -2.436984,0.44703 -3.758878,0.984516 -0.420927,0.17115 -0.827183,0.372695 -1.223697,0.587561 -0.396515,0.214867 -0.781407,0.448269 -1.153418,0.699182 -0.372012,0.250914 -0.73122,0.519435 -1.076421,0.804086 -0.3452,0.284651 -0.676107,0.585673 -0.992187,0.901753 -0.31608,0.31608 -0.617103,0.647504 -0.901754,0.992705 -0.284651,0.3452 -0.553172,0.704408 -0.804085,1.07642 -0.250913,0.372011 -0.484316,0.756387 -0.699182,1.152901 -0.214867,0.396514 -0.41105,0.80499 -0.587561,1.223698 -0.176511,0.418708 -0.333376,0.847634 -0.469222,1.286226 -0.135847,0.438593 -0.250775,0.886902 -0.343648,1.343071 -0.09287,0.456168 -0.163766,0.92021 -0.211357,1.391646 -0.04759,0.471436 -0.07183,0.950144 -0.07183,1.434538 v 78.233466 c 0,0.4844 0.02424,0.96259 0.07183,1.43402 0.04759,0.47144 0.118483,0.936 0.211357,1.39217 0.09287,0.45616 0.207801,0.90396 0.343648,1.34255 0.135846,0.43859 0.292711,0.86803 0.469222,1.28674 0.176511,0.41871 0.372694,0.82667 0.587561,1.22318 0.214866,0.39652 0.448269,0.78141 0.699182,1.15342 0.250913,0.37201 0.519434,0.73122 0.804085,1.07642 0.284651,0.3452 0.585674,0.67663 0.901754,0.99271 0.31608,0.31608 0.646987,0.6171 0.992187,0.90175 0.345201,0.28465 0.704409,0.55265 1.076421,0.80357 0.372011,0.25091 0.756903,0.48431 1.153418,0.69918 0.396514,0.21487 0.80499,0.41157 1.223697,0.58808 0.418708,0.17651 0.847634,0.33286 1.286227,0.4687 0.438592,0.13585 0.886902,0.25078 1.34307,0.34365 0.456169,0.0929 0.920211,0.16377 1.391647,0.21136 0.471435,0.0476 0.950144,0.0724 1.434537,0.0724 h 57.838333 c 0.48439,0 0.9631,-0.0248 1.43454,-0.0724 0.47143,-0.0476 0.93547,-0.11849 1.39164,-0.21136 0.45617,-0.0929 0.90448,-0.2078 1.34307,-0.34365 0.43859,-0.13584 0.86752,-0.29219 1.28623,-0.4687 0.41871,-0.17651 0.82718,-0.37321 1.2237,-0.58808 0.39651,-0.21487 0.7814,-0.44827 1.15341,-0.69918 0.37202,-0.25092 0.73122,-0.51892 1.07642,-0.80357 0.3452,-0.28465 0.67611,-0.58567 0.99219,-0.90175 0.31608,-0.31608 0.6171,-0.64751 0.90176,-0.99271 0.28465,-0.3452 0.55317,-0.70441 0.80408,-1.07642 0.25091,-0.37201 0.48432,-0.7569 0.69918,-1.15342 0.21487,-0.39651 0.41105,-0.80447 0.58756,-1.22318 0.17651,-0.41871 0.33338,-0.84815 0.46923,-1.28674 0.13584,-0.43859 0.25077,-0.88639 0.34364,-1.34255 0.0929,-0.45617 0.16377,-0.92073 0.21136,-1.39217 0.0476,-0.47143 0.0718,-0.94962 0.0718,-1.43402 V 60.644074 c 0,-0.484394 -0.0242,-0.963102 -0.0718,-1.434538 -0.0476,-0.471436 -0.11848,-0.935478 -0.21136,-1.391646 -0.0929,-0.456169 -0.2078,-0.904478 -0.34364,-1.343071 -0.13585,-0.438592 -0.29272,-0.867518 -0.46923,-1.286226 -0.17651,-0.418708 -0.37269,-0.827184 -0.58756,-1.223698 -0.21486,-0.396514 -0.44827,-0.78089 -0.69918,-1.152901 -0.25091,-0.372012 -0.51943,-0.73122 -0.80408,-1.07642 -0.28466,-0.345201 -0.58568,-0.676625 -0.90176,-0.992705 -0.31608,-0.31608 -0.64699,-0.617102 -0.99219,-0.901753 -0.3452,-0.284651 -0.7044,-0.553172 -1.07642,-0.804086 -0.37201,-0.250913 -0.7569,-0.484315 -1.15341,-0.699182 -0.39652,-0.214866 -0.80499,-0.41105 -1.2237,-0.587561 -0.41871,-0.176511 -0.84764,-0.333375 -1.28623,-0.469222 -0.43859,-0.135846 -0.8869,-0.250775 -1.34307,-0.343648 -0.45617,-0.09287 -0.92021,-0.163766 -1.39164,-0.211357 -0.47144,-0.04759 -0.95015,-0.07183 -1.43454,-0.07183 z"
         style="display:inline;fill:none;stroke:#000000;stroke-width:3.46152708;stroke-linecap:round;stroke-linejoin:round;stroke-miterlimit:67.1;stroke-dasharray:none;stroke-opacity:1"
         id="path10"
         sodipodi:nodetypes="ssssssssssssssssssssssssssssscsssscssssssssssssssssssssssssssssssss"
         inkscape:path-effect="#path-effect3"
         inkscape:original-d="m 85.019547,46.65423 c -0.484393,0 -1.130329,0.03833 -1.696603,0.111541 -1.02387,0.132374 -2.436984,0.44703 -3.758878,0.984516 -0.420927,0.17115 -0.827183,0.372695 -1.223697,0.587561 -0.396515,0.214867 -0.781407,0.448269 -1.153418,0.699182 -0.372012,0.250914 -0.73122,0.519435 -1.076421,0.804086 -0.3452,0.284651 -0.676107,0.585673 -0.992187,0.901753 -0.31608,0.31608 -0.617103,0.647504 -0.901754,0.992705 -0.284651,0.3452 -0.553172,0.704408 -0.804085,1.07642 -0.250913,0.372011 -0.484316,0.756387 -0.699182,1.152901 -0.214867,0.396514 -0.41105,0.80499 -0.587561,1.223698 -0.176511,0.418708 -0.333376,0.847634 -0.469222,1.286226 -0.135847,0.438593 -0.250775,0.886902 -0.343648,1.343071 -0.09287,0.456168 -0.163766,0.92021 -0.211357,1.391646 -0.04759,0.471436 -0.07183,0.950144 -0.07183,1.434538 v 78.233466 c 0,0.4844 0.02424,0.96259 0.07183,1.43402 0.04759,0.47144 0.118483,0.936 0.211357,1.39217 0.09287,0.45616 0.207801,0.90396 0.343648,1.34255 0.135846,0.43859 0.292711,0.86803 0.469222,1.28674 0.176511,0.41871 0.372694,0.82667 0.587561,1.22318 0.214866,0.39652 0.448269,0.78141 0.699182,1.15342 0.250913,0.37201 0.519434,0.73122 0.804085,1.07642 0.284651,0.3452 0.585674,0.67663 0.901754,0.99271 0.31608,0.31608 0.646987,0.6171 0.992187,0.90175 0.345201,0.28465 0.704409,0.55265 1.076421,0.80357 0.372011,0.25091 0.756903,0.48431 1.153418,0.69918 0.396514,0.21487 0.80499,0.41157 1.223697,0.58808 0.418708,0.17651 0.847634,0.33286 1.286227,0.4687 0.438592,0.13585 0.886902,0.25078 1.34307,0.34365 0.456169,0.0929 0.920211,0.16377 1.391647,0.21136 0.471435,0.0476 0.950144,0.0724 1.434537,0.0724 h 57.838333 c 0.48439,0 0.9631,-0.0248 1.43454,-0.0724 0.47143,-0.0476 0.93547,-0.11849 1.39164,-0.21136 0.45617,-0.0929 0.90448,-0.2078 1.34307,-0.34365 0.43859,-0.13584 0.86752,-0.29219 1.28623,-0.4687 0.41871,-0.17651 0.82718,-0.37321 1.2237,-0.58808 0.39651,-0.21487 0.7814,-0.44827 1.15341,-0.69918 0.37202,-0.25092 0.73122,-0.51892 1.07642,-0.80357 0.3452,-0.28465 0.67611,-0.58567 0.99219,-0.90175 0.31608,-0.31608 0.6171,-0.64751 0.90176,-0.99271 0.28465,-0.3452 0.55317,-0.70441 0.80408,-1.07642 0.25091,-0.37201 0.48432,-0.7569 0.69918,-1.15342 0.21487,-0.39651 0.41105,-0.80447 0.58756,-1.22318 0.17651,-0.41871 0.33338,-0.84815 0.46923,-1.28674 0.13584,-0.43859 0.25077,-0.88639 0.34364,-1.34255 0.0929,-0.45617 0.16377,-0.92073 0.21136,-1.39217 0.0476,-0.47143 0.0718,-0.94962 0.0718,-1.43402 V 60.644074 c 0,-0.484394 -0.0242,-0.963102 -0.0718,-1.434538 -0.0476,-0.471436 -0.11848,-0.935478 -0.21136,-1.391646 -0.0929,-0.456169 -0.2078,-0.904478 -0.34364,-1.343071 -0.13585,-0.438592 -0.29272,-0.867518 -0.46923,-1.286226 -0.17651,-0.418708 -0.37269,-0.827184 -0.58756,-1.223698 -0.21486,-0.396514 -0.44827,-0.78089 -0.69918,-1.152901 -0.25091,-0.372012 -0.51943,-0.73122 -0.80408,-1.07642 -0.28466,-0.345201 -0.58568,-0.676625 -0.90176,-0.992705 -0.31608,-0.31608 -0.64699,-0.617102 -0.99219,-0.901753 -0.3452,-0.284651 -0.7044,-0.553172 -1.07642,-0.804086 -0.37201,-0.250913 -0.7569,-0.484315 -1.15341,-0.699182 -0.39652,-0.214866 -0.80499,-0.41105 -1.2237,-0.587561 -0.41871,-0.176511 -0.84764,-0.333375 -1.28623,-0.469222 -0.43859,-0.135846 -0.8869,-0.250775 -1.34307,-0.343648 -0.45617,-0.09287 -0.92021,-0.163766 -1.39164,-0.211357 -0.47144,-0.04759 -0.95015,-0.07183 -1.43454,-0.07183 z" /><path
         id="path2"
         style="display:inline;mix-blend-mode:normal;fill:none;fill-opacity:1;stroke:#000000;stroke-width:3.46153;stroke-linecap:square;stroke-linejoin:miter;stroke-dasharray:none;stroke-opacity:1;paint-order:normal"
         d="m 85.182736,128.63591 h 25.641194 c 0,0 22.29852,0.22445 32.43389,-0.0228 1.91891,-0.0468 4.97151,-0.63382 6.60182,-1.64601 3.44003,-2.13577 4.13173,-4.62968 4.23229,-5.95927 0.0396,-0.52293 0.0244,-0.65036 0.0304,-0.27886 0.009,0.57384 0.0172,1.45851 0.0291,2.6709 0.0332,3.38345 0.006,13.1076 -0.28047,15.87661 -0.61439,5.93008 -4.9818,10.64055 -11.16995,10.64055 H 85.182736 c -6.188152,0 -11.169949,-4.74569 -11.169949,-10.64055 0,-5.89487 4.981797,-10.64056 11.169949,-10.64056 z"
         sodipodi:nodetypes="scccsssssss"
         clip-path="none"
         inkscape:path-effect="#path-effect2"
         inkscape:original-d="m 85.182736,128.63591 h 25.641194 c 0,0 29.05168,0.29243 35.90678,-0.15797 8.37753,-3.15121 7.33437,-8.41928 7.33437,-8.41928 0.0523,-0.54203 0.0584,0.49915 0.0863,3.34121 0.0332,3.38345 0.006,13.1076 -0.28047,15.87661 -0.61439,5.93008 -4.9818,10.64055 -11.16995,10.64055 H 85.182736 c -6.188152,0 -11.169949,-4.74569 -11.169949,-10.64055 0,-5.89487 4.981797,-10.64056 11.169949,-10.64056 z"
         transform="matrix(0.91767087,0,0,0.91767087,9.5175073,9.0525387)" /></g><path
       style="display:inline;fill:#ffffff;fill-opacity:1;stroke:#000000;stroke-width:2.56927;stroke-linecap:round;stroke-linejoin:round;stroke-miterlimit:67.1;stroke-dasharray:none;stroke-dashoffset:0;stroke-opacity:1;paint-order:markers fill stroke"
       id="path8"
       d="m 78.567591,141.5436 c -0.06271,0.65829 -0.203611,1.30925 -0.337125,1.95945 -0.16934,0.92376 -0.286286,1.85345 -0.418963,2.78136 -0.122411,0.74208 0.0028,1.47497 0.188747,2.19985 0.174305,0.64538 0.572697,1.21678 0.937477,1.79551 0.372995,0.57175 0.759413,1.13673 1.204229,1.67146 0.416934,0.44813 0.827912,0.89615 1.164923,1.38987 0.379657,0.62167 0.49637,1.32368 0.624634,2.0059 0.128237,0.88249 0.0069,1.77208 -0.321906,2.61361 -0.218711,0.44593 -0.426619,0.92071 -0.809809,1.29094 -0.19714,0.19048 -0.357551,0.27756 -0.595359,0.43097 -0.537672,0.35368 -1.113796,0.65657 -1.661444,0.99818 -0.614981,0.38863 -1.166231,0.85087 -1.678679,1.33213 -0.433848,0.47161 -0.823189,0.97971 -1.185609,1.49321 -0.29246,0.44124 -0.396933,0.94512 -0.555702,1.42697 -0.06394,0.19282 -0.11263,0.38838 -0.174794,0.58153 l 5.092696,2.31043 v 0 c 0.0557,-0.19555 0.09395,-0.39282 0.146335,-0.58903 0.133608,-0.44625 0.25381,-0.90139 0.475131,-1.32364 0.317072,-0.49884 0.705146,-0.96612 1.111878,-1.416 0.474079,-0.46951 1.023849,-0.87871 1.62091,-1.23621 0.556286,-0.33604 1.12827,-0.65311 1.643197,-1.03508 0.289245,-0.20459 0.440675,-0.29222 0.681152,-0.54109 0.404731,-0.41884 0.629511,-0.93232 0.848441,-1.43141 0.172883,-0.41578 0.230259,-0.50349 0.32739,-0.93677 0.13689,-0.61057 0.146263,-1.242 0.145075,-1.8606 -0.103464,-0.71311 -0.228995,-1.43769 -0.49426,-2.12135 -0.273457,-0.55157 -0.689559,-1.03132 -1.155991,-1.48092 -0.466159,-0.50557 -0.846725,-1.05553 -1.235012,-1.60455 -0.346524,-0.55729 -0.748237,-1.0965 -0.992495,-1.69323 -0.238569,-0.67255 -0.373523,-1.36104 -0.320565,-2.06518 0.10182,-0.91795 0.215906,-1.83739 0.402341,-2.74606 0.15495,-0.64114 1.091684,-3.50491 1.259291,-4.14374 z"
       sodipodi:nodetypes="cccccccccscccccccscccccscsccccccccc" /><text
       xml:space="preserve"
       transform="matrix(0.61793894,0,0,0.61793894,-40.59545,-51.979828)"
       id="text8"
       style="font-size:42.6667px;line-height:0.9;text-align:center;white-space:pre;shape-inside:url(#rect8);shape-padding:33.8086;display:inline;fill:#000000;fill-opacity:1;stroke:#000000;stroke-width:2.58786;stroke-linecap:square;stroke-linejoin:round;stroke-miterlimit:36.9;stroke-dasharray:none;stroke-dashoffset:0;stroke-opacity:1;paint-order:markers stroke fill"
       x="54.125042"
       y="0"><tspan
         x="194.6093"
         y="198.30679"
         id="tspan2"><tspan
           style="font-family:'TeX Gyre Chorus';-inkscape-font-specification:'TeX Gyre Chorus'"
           id="tspan1">Word </tspan></tspan><tspan
         x="221.1693"
         y="237.03815"
         id="tspan4"><tspan
           style="font-family:'TeX Gyre Chorus';-inkscape-font-specification:'TeX Gyre Chorus'"
           id="tspan3">of </tspan></tspan><tspan
         x="205.38259"
         y="275.7695"
         id="tspan6"><tspan
           style="font-family:'TeX Gyre Chorus';-inkscape-font-specification:'TeX Gyre Chorus'"
           id="tspan5">God</tspan></tspan></text><path
       style="display:none;opacity:1;fill:none;fill-opacity:1;stroke:#2a2219;stroke-width:1.62911;stroke-linecap:square;stroke-linejoin:miter;stroke-miterlimit:36.9;stroke-dasharray:none;stroke-dashoffset:0;stroke-opacity:1;paint-order:normal"
       id="path11"
       sodipodi:type="arc"
       sodipodi:cx="77.6455"
       sodipodi:cy="45.909973"
       sodipodi:rx="2.3454633"
       sodipodi:ry="2.2899039"
       sodipodi:start="3.1330609"
       sodipodi:end="4.7258611"
       sodipodi:arc-type="arc"
       d="m 75.300122,45.92951 a 2.3454633,2.2899039 0 0 1 0.690987,-1.642738 2.3454633,2.2899039 0 0 1 1.685989,-0.666495"
       sodipodi:open="true" /><path
       style="display:none;fill:none;fill-opacity:1;stroke:#2a2219;stroke-width:1.67654;stroke-linecap:square;stroke-linejoin:miter;stroke-miterlimit:36.9;stroke-dasharray:none;stroke-dashoffset:0;stroke-opacity:1;paint-order:normal"
       id="path11-5"
       sodipodi:type="arc"
       sodipodi:cx="46.330341"
       sodipodi:cy="-73.01796"
       sodipodi:rx="1.7893338"
       sodipodi:ry="2.2452559"
       sodipodi:start="2.8070875"
       sodipodi:end="4.6584481"
       sodipodi:arc-type="arc"
       d="m 44.640185,-72.280838 a 1.7893338,2.2452559 0 0 1 0.204497,-1.988486 1.7893338,2.2452559 0 0 1 1.389188,-0.990626"
       sodipodi:open="true"
       transform="rotate(90)" /><path
       style="display:none;fill:none;stroke:#2a2219;stroke-width:1.86662;stroke-dasharray:none;stroke-opacity:1"
       d="M 74.677846,43.335381 V 124.58933"
       id="path1" /></g></svg>
