<?xml version="1.0" encoding="UTF-8" standalone="no"?>
<svg
   viewBox="0 0 128 128"
   style="display:inline;enable-background:new"
   version="1.0"
   id="svg11300"
   height="128"
   width="128"
   sodipodi:docname="org.robertomorrison.wordofgod-symbolic.svg"
   inkscape:version="1.3 (0e150ed6c4, 2023-07-21)"
   inkscape:export-filename="org.robertomorrison.wordofgod.svg"
   inkscape:export-xdpi="237.80302"
   inkscape:export-ydpi="237.80302"
   xmlns:inkscape="http://www.inkscape.org/namespaces/inkscape"
   xmlns:sodipodi="http://sodipodi.sourceforge.net/DTD/sodipodi-0.dtd"
   xmlns="http://www.w3.org/2000/svg"
   xmlns:svg="http://www.w3.org/2000/svg"
   xmlns:rdf="http://www.w3.org/1999/02/22-rdf-syntax-ns#"
   xmlns:cc="http://creativecommons.org/ns#"
   xmlns:dc="http://purl.org/dc/elements/1.1/">
  <sodipodi:namedview
     id="namedview1"
     pagecolor="#ffffff"
     bordercolor="#000000"
     borderopacity="0.25"
     inkscape:showpageshadow="2"
     inkscape:pageopacity="0.0"
     inkscape:pagecheckerboard="0"
     inkscape:deskcolor="#d1d1d1"
     inkscape:zoom="5.6328706"
     inkscape:cx="53.702636"
     inkscape:cy="67.549928"
     inkscape:window-width="1920"
     inkscape:window-height="1011"
     inkscape:window-x="0"
     inkscape:window-y="32"
     inkscape:window-maximized="1"
     inkscape:current-layer="svg11300" />
  <title
     id="title4162">Adwaita Icon Template</title>
  <defs
     id="defs3">
    <linearGradient
       id="swatch201"
       inkscape:swatch="solid">
      <stop
         style="stop-color:#c5a987;stop-opacity:1;"
         offset="0"
         id="stop201" />
    </linearGradient>
    <linearGradient
       id="swatch161"
       inkscape:swatch="solid">
      <stop
         style="stop-color:#000000;stop-opacity:1;"
         offset="0"
         id="stop161" />
    </linearGradient>
    <inkscape:path-effect
       effect="fillet_chamfer"
       id="path-effect6"
       is_visible="true"
       lpeversion="1"
       nodesatellites_param="F,0,0,1,0,0,0,1 @ F,0,0,1,0,0,0,1 @ F,0,0,1,0,3.4801201,0,1 @ F,0,0,1,0,0.95188461,0,1 @ F,0,0,1,0,0,0,1 @ F,0,0,1,0,0,0,1 @ F,0,0,1,0,0,0,1 @ F,0,0,1,0,0,0,1 @ F,0,0,1,0,0,0,1 @ F,0,0,1,0,0,0,1"
       radius="0"
       unit="px"
       method="auto"
       mode="F"
       chamfer_steps="1"
       flexible="false"
       use_knot_distance="true"
       apply_no_radius="true"
       apply_with_radius="true"
       only_selected="false"
       hide_knots="false" />
    <inkscape:path-effect
       effect="fillet_chamfer"
       id="path-effect3"
       is_visible="true"
       lpeversion="1"
       nodesatellites_param="F,0,0,1,0,0,0,1 @ F,0,0,1,0,0,0,1 @ F,0,0,1,0,0,0,1 @ F,0,0,1,0,0,0,1 @ F,0,0,1,0,0,0,1 @ F,0,0,1,0,0,0,1 @ F,0,0,1,0,0,0,1 @ F,0,0,1,0,0,0,1 @ F,0,0,1,0,0,0,1 @ F,0,0,1,0,0,0,1 @ F,0,0,1,0,0,0,1 @ F,0,0,1,0,0,0,1 @ F,0,0,1,0,0,0,1 @ F,0,0,1,0,0,0,1 @ F,0,0,1,0,0,0,1 @ F,0,0,1,0,0,0,1 @ F,0,0,1,0,0,0,1 @ F,0,0,1,0,0,0,1 @ F,0,0,1,0,0,0,1 @ F,0,0,1,0,0,0,1 @ F,0,0,1,0,0,0,1 @ F,0,0,1,0,0,0,1 @ F,0,0,1,0,0,0,1 @ F,0,0,1,0,0,0,1 @ F,0,0,1,0,0,0,1 @ F,0,0,1,0,0,0,1 @ F,0,0,1,0,0,0,1 @ F,0,0,1,0,0,0,1 @ F,0,0,1,0,0,0,1 @ F,0,0,1,0,0,0,1 @ F,0,0,1,0,0,0,1 @ F,0,0,1,0,0,0,1 @ F,0,0,1,0,0,0,1 @ F,0,0,1,0,0,0,1 @ F,0,0,1,0,0,0,1 @ F,0,0,1,0,0,0,1 @ F,0,0,1,0,0,0,1 @ F,0,0,1,0,0,0,1 @ F,0,0,1,0,0,0,1 @ F,0,0,1,0,0,0,1 @ F,0,0,1,0,0,0,1 @ F,0,0,1,0,0,0,1 @ F,0,0,1,0,0,0,1 @ F,0,0,1,0,0,0,1 @ F,0,0,1,0,0,0,1 @ F,0,0,1,0,0,0,1 @ F,0,0,1,0,0,0,1 @ F,0,0,1,0,0,0,1 @ F,0,0,1,0,0,0,1 @ F,0,0,1,0,0,0,1 @ F,0,0,1,0,0,0,1 @ F,0,0,1,0,0,0,1 @ F,0,0,1,0,0,0,1 @ F,0,0,1,0,0,0,1 @ F,0,0,1,0,0,0,1 @ F,0,0,1,0,0,0,1 @ F,0,0,1,0,0,0,1 @ F,0,0,1,0,0,0,1 @ F,0,0,1,0,0,0,1 @ F,0,0,1,0,0,0,1 @ F,0,0,1,0,0,0,1 @ F,0,0,1,0,0,0,1 @ F,0,0,1,0,0,0,1 @ F,0,0,1,0,0,0,1 @ F,0,0,1,0,0,0,1 @ F,0,0,1,0,0,0,1"
       radius="0"
       unit="px"
       method="auto"
       mode="F"
       chamfer_steps="1"
       flexible="false"
       use_knot_distance="true"
       apply_no_radius="true"
       apply_with_radius="true"
       only_selected="false"
       hide_knots="false" />
    <inkscape:path-effect
       effect="fillet_chamfer"
       id="path-effect2"
       is_visible="true"
       lpeversion="1"
       nodesatellites_param="F,0,0,1,0,0,0,1 @ F,0,0,1,0,0,0,1 @ F,0,0,1,0,3.4801201,0,1 @ F,0,0,1,0,0.95188461,0,1 @ F,0,0,1,0,0,0,1 @ F,0,0,1,0,0,0,1 @ F,0,0,1,0,0,0,1 @ F,0,0,1,0,0,0,1 @ F,0,0,1,0,0,0,1 @ F,0,0,1,0,0,0,1"
       radius="0"
       unit="px"
       method="auto"
       mode="F"
       chamfer_steps="1"
       flexible="false"
       use_knot_distance="true"
       apply_no_radius="true"
       apply_with_radius="true"
       only_selected="false"
       hide_knots="false" />
  </defs>
  <metadata
     id="metadata4">
    <rdf:RDF>
      <cc:Work
         rdf:about="">
        <dc:format>image/svg+xml</dc:format>
        <dc:type
           rdf:resource="http://purl.org/dc/dcmitype/StillImage" />
        <dc:creator>
          <cc:Agent>
            <dc:title>GNOME Design Team</dc:title>
          </cc:Agent>
        </dc:creator>
        <dc:source />
        <cc:license
           rdf:resource="http://creativecommons.org/licenses/by-sa/4.0/" />
        <dc:title>Adwaita Icon Template</dc:title>
        <dc:subject>
          <rdf:Bag />
        </dc:subject>
        <dc:date />
        <dc:rights>
          <cc:Agent>
            <dc:title />
          </cc:Agent>
        </dc:rights>
        <dc:publisher>
          <cc:Agent>
            <dc:title />
          </cc:Agent>
        </dc:publisher>
        <dc:identifier />
        <dc:relation />
        <dc:language />
        <dc:coverage />
        <dc:description />
        <dc:contributor>
          <cc:Agent>
            <dc:title />
          </cc:Agent>
        </dc:contributor>
      </cc:Work>
      <cc:License
         rdf:about="http://creativecommons.org/licenses/by-sa/4.0/">
        <cc:permits
           rdf:resource="http://creativecommons.org/ns#Reproduction" />
        <cc:permits
           rdf:resource="http://creativecommons.org/ns#Distribution" />
        <cc:requires
           rdf:resource="http://creativecommons.org/ns#Notice" />
        <cc:requires
           rdf:resource="http://creativecommons.org/ns#Attribution" />
        <cc:permits
           rdf:resource="http://creativecommons.org/ns#DerivativeWorks" />
        <cc:requires
           rdf:resource="http://creativecommons.org/ns#ShareAlike" />
      </cc:License>
    </rdf:RDF>
  </metadata>
  <g
     id="g8"
     style="display:inline;mix-blend-mode:normal;stroke-width:1.44908307;stroke-dasharray:none;opacity:1;fill:none;stroke:#000000;stroke-opacity:1"
     transform="matrix(1.1903732,0,0,1.0434589,-72.011325,-40.013133)">
    <path
       d="m 85.019547,46.65423 c -0.484393,0 -1.130329,0.03833 -1.696603,0.111541 -1.02387,0.132374 -2.436984,0.44703 -3.758878,0.984516 -0.420927,0.17115 -0.827183,0.372695 -1.223697,0.587561 -0.396515,0.214867 -0.781407,0.448269 -1.153418,0.699182 -0.372012,0.250914 -0.73122,0.519435 -1.076421,0.804086 -0.3452,0.284651 -0.676107,0.585673 -0.992187,0.901753 -0.31608,0.31608 -0.617103,0.647504 -0.901754,0.992705 -0.284651,0.3452 -0.553172,0.704408 -0.804085,1.07642 -0.250913,0.372011 -0.484316,0.756387 -0.699182,1.152901 -0.214867,0.396514 -0.41105,0.80499 -0.587561,1.223698 -0.176511,0.418708 -0.333376,0.847634 -0.469222,1.286226 -0.135847,0.438593 -0.250775,0.886902 -0.343648,1.343071 -0.09287,0.456168 -0.163766,0.92021 -0.211357,1.391646 -0.04759,0.471436 -0.07183,0.950144 -0.07183,1.434538 v 78.233466 c 0,0.4844 0.02424,0.96259 0.07183,1.43402 0.04759,0.47144 0.118483,0.936 0.211357,1.39217 0.09287,0.45616 0.207801,0.90396 0.343648,1.34255 0.135846,0.43859 0.292711,0.86803 0.469222,1.28674 0.176511,0.41871 0.372694,0.82667 0.587561,1.22318 0.214866,0.39652 0.448269,0.78141 0.699182,1.15342 0.250913,0.37201 0.519434,0.73122 0.804085,1.07642 0.284651,0.3452 0.585674,0.67663 0.901754,0.99271 0.31608,0.31608 0.646987,0.6171 0.992187,0.90175 0.345201,0.28465 0.704409,0.55265 1.076421,0.80357 0.372011,0.25091 0.756903,0.48431 1.153418,0.69918 0.396514,0.21487 0.80499,0.41157 1.223697,0.58808 0.418708,0.17651 0.847634,0.33286 1.286227,0.4687 0.438592,0.13585 0.886902,0.25078 1.34307,0.34365 0.456169,0.0929 0.920211,0.16377 1.391647,0.21136 0.471435,0.0476 0.950144,0.0724 1.434537,0.0724 h 57.838333 c 0.48439,0 0.9631,-0.0248 1.43454,-0.0724 0.47143,-0.0476 0.93547,-0.11849 1.39164,-0.21136 0.45617,-0.0929 0.90448,-0.2078 1.34307,-0.34365 0.43859,-0.13584 0.86752,-0.29219 1.28623,-0.4687 0.41871,-0.17651 0.82718,-0.37321 1.2237,-0.58808 0.39651,-0.21487 0.7814,-0.44827 1.15341,-0.69918 0.37202,-0.25092 0.73122,-0.51892 1.07642,-0.80357 0.3452,-0.28465 0.67611,-0.58567 0.99219,-0.90175 0.31608,-0.31608 0.6171,-0.64751 0.90176,-0.99271 0.28465,-0.3452 0.55317,-0.70441 0.80408,-1.07642 0.25091,-0.37201 0.48432,-0.7569 0.69918,-1.15342 0.21487,-0.39651 0.41105,-0.80447 0.58756,-1.22318 0.17651,-0.41871 0.33338,-0.84815 0.46923,-1.28674 0.13584,-0.43859 0.25077,-0.88639 0.34364,-1.34255 0.0929,-0.45617 0.16377,-0.92073 0.21136,-1.39217 0.0476,-0.47143 0.0718,-0.94962 0.0718,-1.43402 V 60.644074 c 0,-0.484394 -0.0242,-0.963102 -0.0718,-1.434538 -0.0476,-0.471436 -0.11848,-0.935478 -0.21136,-1.391646 -0.0929,-0.456169 -0.2078,-0.904478 -0.34364,-1.343071 -0.13585,-0.438592 -0.29272,-0.867518 -0.46923,-1.286226 -0.17651,-0.418708 -0.37269,-0.827184 -0.58756,-1.223698 -0.21486,-0.396514 -0.44827,-0.78089 -0.69918,-1.152901 -0.25091,-0.372012 -0.51943,-0.73122 -0.80408,-1.07642 -0.28466,-0.345201 -0.58568,-0.676625 -0.90176,-0.992705 -0.31608,-0.31608 -0.64699,-0.617102 -0.99219,-0.901753 -0.3452,-0.284651 -0.7044,-0.553172 -1.07642,-0.804086 -0.37201,-0.250913 -0.7569,-0.484315 -1.15341,-0.699182 -0.39652,-0.214866 -0.80499,-0.41105 -1.2237,-0.587561 -0.41871,-0.176511 -0.84764,-0.333375 -1.28623,-0.469222 -0.43859,-0.135846 -0.8869,-0.250775 -1.34307,-0.343648 -0.45617,-0.09287 -0.92021,-0.163766 -1.39164,-0.211357 -0.47144,-0.04759 -0.95015,-0.07183 -1.43454,-0.07183 z"
       style="display:inline;fill:none;stroke:#000000;stroke-width:1.44908307;stroke-linecap:round;stroke-linejoin:round;stroke-miterlimit:67.1;stroke-dasharray:none;stroke-opacity:1"
       id="path10"
       sodipodi:nodetypes="ssssssssssssssssssssssssssssscsssscssssssssssssssssssssssssssssssss"
       inkscape:path-effect="#path-effect3"
       inkscape:original-d="m 85.019547,46.65423 c -0.484393,0 -1.130329,0.03833 -1.696603,0.111541 -1.02387,0.132374 -2.436984,0.44703 -3.758878,0.984516 -0.420927,0.17115 -0.827183,0.372695 -1.223697,0.587561 -0.396515,0.214867 -0.781407,0.448269 -1.153418,0.699182 -0.372012,0.250914 -0.73122,0.519435 -1.076421,0.804086 -0.3452,0.284651 -0.676107,0.585673 -0.992187,0.901753 -0.31608,0.31608 -0.617103,0.647504 -0.901754,0.992705 -0.284651,0.3452 -0.553172,0.704408 -0.804085,1.07642 -0.250913,0.372011 -0.484316,0.756387 -0.699182,1.152901 -0.214867,0.396514 -0.41105,0.80499 -0.587561,1.223698 -0.176511,0.418708 -0.333376,0.847634 -0.469222,1.286226 -0.135847,0.438593 -0.250775,0.886902 -0.343648,1.343071 -0.09287,0.456168 -0.163766,0.92021 -0.211357,1.391646 -0.04759,0.471436 -0.07183,0.950144 -0.07183,1.434538 v 78.233466 c 0,0.4844 0.02424,0.96259 0.07183,1.43402 0.04759,0.47144 0.118483,0.936 0.211357,1.39217 0.09287,0.45616 0.207801,0.90396 0.343648,1.34255 0.135846,0.43859 0.292711,0.86803 0.469222,1.28674 0.176511,0.41871 0.372694,0.82667 0.587561,1.22318 0.214866,0.39652 0.448269,0.78141 0.699182,1.15342 0.250913,0.37201 0.519434,0.73122 0.804085,1.07642 0.284651,0.3452 0.585674,0.67663 0.901754,0.99271 0.31608,0.31608 0.646987,0.6171 0.992187,0.90175 0.345201,0.28465 0.704409,0.55265 1.076421,0.80357 0.372011,0.25091 0.756903,0.48431 1.153418,0.69918 0.396514,0.21487 0.80499,0.41157 1.223697,0.58808 0.418708,0.17651 0.847634,0.33286 1.286227,0.4687 0.438592,0.13585 0.886902,0.25078 1.34307,0.34365 0.456169,0.0929 0.920211,0.16377 1.391647,0.21136 0.471435,0.0476 0.950144,0.0724 1.434537,0.0724 h 57.838333 c 0.48439,0 0.9631,-0.0248 1.43454,-0.0724 0.47143,-0.0476 0.93547,-0.11849 1.39164,-0.21136 0.45617,-0.0929 0.90448,-0.2078 1.34307,-0.34365 0.43859,-0.13584 0.86752,-0.29219 1.28623,-0.4687 0.41871,-0.17651 0.82718,-0.37321 1.2237,-0.58808 0.39651,-0.21487 0.7814,-0.44827 1.15341,-0.69918 0.37202,-0.25092 0.73122,-0.51892 1.07642,-0.80357 0.3452,-0.28465 0.67611,-0.58567 0.99219,-0.90175 0.31608,-0.31608 0.6171,-0.64751 0.90176,-0.99271 0.28465,-0.3452 0.55317,-0.70441 0.80408,-1.07642 0.25091,-0.37201 0.48432,-0.7569 0.69918,-1.15342 0.21487,-0.39651 0.41105,-0.80447 0.58756,-1.22318 0.17651,-0.41871 0.33338,-0.84815 0.46923,-1.28674 0.13584,-0.43859 0.25077,-0.88639 0.34364,-1.34255 0.0929,-0.45617 0.16377,-0.92073 0.21136,-1.39217 0.0476,-0.47143 0.0718,-0.94962 0.0718,-1.43402 V 60.644074 c 0,-0.484394 -0.0242,-0.963102 -0.0718,-1.434538 -0.0476,-0.471436 -0.11848,-0.935478 -0.21136,-1.391646 -0.0929,-0.456169 -0.2078,-0.904478 -0.34364,-1.343071 -0.13585,-0.438592 -0.29272,-0.867518 -0.46923,-1.286226 -0.17651,-0.418708 -0.37269,-0.827184 -0.58756,-1.223698 -0.21486,-0.396514 -0.44827,-0.78089 -0.69918,-1.152901 -0.25091,-0.372012 -0.51943,-0.73122 -0.80408,-1.07642 -0.28466,-0.345201 -0.58568,-0.676625 -0.90176,-0.992705 -0.31608,-0.31608 -0.64699,-0.617102 -0.99219,-0.901753 -0.3452,-0.284651 -0.7044,-0.553172 -1.07642,-0.804086 -0.37201,-0.250913 -0.7569,-0.484315 -1.15341,-0.699182 -0.39652,-0.214866 -0.80499,-0.41105 -1.2237,-0.587561 -0.41871,-0.176511 -0.84764,-0.333375 -1.28623,-0.469222 -0.43859,-0.135846 -0.8869,-0.250775 -1.34307,-0.343648 -0.45617,-0.09287 -0.92021,-0.163766 -1.39164,-0.211357 -0.47144,-0.04759 -0.95015,-0.07183 -1.43454,-0.07183 z"
       sodipodi:insensitive="true" />
    <path
       id="path2"
       style="display:inline;mix-blend-mode:normal;fill:none;stroke:#000000;stroke-width:1.62547;stroke-linecap:square;stroke-linejoin:miter;stroke-dasharray:none;stroke-opacity:1;paint-order:normal"
       d="m 85.182736,128.63591 h 25.641194 c 0,0 22.29852,0.22445 32.43389,-0.0228 1.91891,-0.0468 4.97151,-0.63382 6.60182,-1.64601 3.44003,-2.13577 4.13173,-4.62968 4.23229,-5.95927 0.0396,-0.52293 0.0244,-0.65036 0.0304,-0.27886 0.009,0.57384 0.0172,1.45851 0.0291,2.6709 0.0332,3.38345 0.006,13.1076 -0.28047,15.87661 -0.61439,5.93008 -4.9818,10.64055 -11.16995,10.64055 H 85.182736 c -6.188152,0 -11.169949,-4.74569 -11.169949,-10.64055 0,-5.89487 4.981797,-10.64056 11.169949,-10.64056 z"
       sodipodi:nodetypes="scccsssssss"
       clip-path="none"
       inkscape:path-effect="#path-effect2"
       inkscape:original-d="m 85.182736,128.63591 h 25.641194 c 0,0 29.05168,0.29243 35.90678,-0.15797 8.37753,-3.15121 7.33437,-8.41928 7.33437,-8.41928 0.0523,-0.54203 0.0584,0.49915 0.0863,3.34121 0.0332,3.38345 0.006,13.1076 -0.28047,15.87661 -0.61439,5.93008 -4.9818,10.64055 -11.16995,10.64055 H 85.182736 c -6.188152,0 -11.169949,-4.74569 -11.169949,-10.64055 0,-5.89487 4.981797,-10.64056 11.169949,-10.64056 z"
       transform="matrix(0.95786251,0,0,0.79486323,4.8074056,28.877836)" />
    <path
       style="display:inline;mix-blend-mode:normal;fill:#ffffff;fill-opacity:1;stroke:#000000;stroke-width:1.19325;stroke-linecap:round;stroke-linejoin:round;stroke-miterlimit:67.1;stroke-dasharray:none;stroke-dashoffset:0;stroke-opacity:1;paint-order:markers fill stroke;enable-background:new"
       id="path8"
       d="m 82.442807,140.59558 c -0.04398,0.35284 -0.142794,0.70175 -0.236428,1.05025 -0.11876,0.49513 -0.200775,0.99344 -0.293822,1.49079 -0.08585,0.39775 0.002,0.79057 0.13237,1.17911 0.122241,0.34591 0.401636,0.65218 0.657458,0.96237 0.261585,0.30646 0.532583,0.60928 0.844536,0.8959 0.292399,0.24019 0.580621,0.48032 0.816969,0.74496 0.266257,0.33321 0.348108,0.70948 0.438061,1.07514 0.08993,0.47301 0.0049,0.94982 -0.225755,1.40088 -0.153384,0.23901 -0.299191,0.49349 -0.567925,0.69193 -0.138257,0.1021 -0.250754,0.14877 -0.41753,0.231 -0.377073,0.18957 -0.781113,0.35191 -1.165184,0.53501 -0.43129,0.20831 -0.817886,0.45606 -1.17727,0.71402 -0.30426,0.25278 -0.577308,0.52511 -0.831476,0.80035 -0.205104,0.2365 -0.278372,0.50657 -0.389718,0.76484 -0.04484,0.10335 -0.07899,0.20817 -0.122585,0.3117 l 3.571547,1.23837 v 0 c 0.03906,-0.10481 0.06589,-0.21055 0.102625,-0.31571 0.0937,-0.23919 0.177999,-0.48314 0.333213,-0.70947 0.222366,-0.26737 0.494524,-0.51783 0.779769,-0.75896 0.332475,-0.25165 0.718032,-0.47098 1.136756,-0.6626 0.390127,-0.18011 0.791264,-0.35006 1.152387,-0.5548 0.202849,-0.10966 0.309048,-0.15663 0.477696,-0.29002 0.283841,-0.22449 0.441481,-0.49972 0.595018,-0.76722 0.121245,-0.22286 0.161483,-0.26987 0.229602,-0.5021 0.096,-0.32726 0.102575,-0.66571 0.101742,-0.99727 -0.07256,-0.38222 -0.160596,-0.77059 -0.346629,-1.13703 -0.191777,-0.29564 -0.483592,-0.55278 -0.810705,-0.79376 -0.32692,-0.27098 -0.593815,-0.56576 -0.866123,-0.86003 -0.24302,-0.2987 -0.524744,-0.58772 -0.696044,-0.90756 -0.16731,-0.36048 -0.261955,-0.7295 -0.224814,-1.10692 0.07141,-0.49201 0.151416,-0.98483 0.282164,-1.47187 0.108667,-0.34364 0.765606,-1.8786 0.88315,-2.22101 z"
       sodipodi:nodetypes="cccccccccscccccccscccccscsccccccccc" />
  </g>
  <g
     id="g200"
     style="fill:none;fill-opacity:1;stroke:#000000;stroke-opacity:1"
     transform="translate(0,4.4751305)">
    <path
       style="display:inline;fill:none;fill-opacity:1;stroke:#000000;stroke-width:8.09868;stroke-opacity:1;enable-background:new"
       d="M 63.727202,24.591664 V 64.077941"
       id="path1" />
    <path
       style="display:inline;fill:none;fill-opacity:1;stroke:#000000;stroke-width:8.099;stroke-dasharray:none;stroke-opacity:1;enable-background:new"
       d="M 49.151822,37.543783 H 77.586089"
       id="path3"
       sodipodi:nodetypes="cc" />
  </g>
</svg>
