<?xml version="1.0" encoding="UTF-8" standalone="no"?>
<svg
   viewBox="0 0 128 128"
   style="display:inline;enable-background:new"
   version="1.0"
   id="svg11300"
   height="128"
   width="128"
   sodipodi:docname="org.robertomorrison.wordofgod.svg"
   inkscape:version="1.3 (0e150ed6c4, 2023-07-21)"
   inkscape:export-filename="org.robertomorrison.wordofgod.svg"
   inkscape:export-xdpi="237.80302"
   inkscape:export-ydpi="237.80302"
   xmlns:inkscape="http://www.inkscape.org/namespaces/inkscape"
   xmlns:sodipodi="http://sodipodi.sourceforge.net/DTD/sodipodi-0.dtd"
   xmlns:xlink="http://www.w3.org/1999/xlink"
   xmlns="http://www.w3.org/2000/svg"
   xmlns:svg="http://www.w3.org/2000/svg"
   xmlns:rdf="http://www.w3.org/1999/02/22-rdf-syntax-ns#"
   xmlns:cc="http://creativecommons.org/ns#"
   xmlns:dc="http://purl.org/dc/elements/1.1/">
  <sodipodi:namedview
     id="namedview1"
     pagecolor="#ffffff"
     bordercolor="#000000"
     borderopacity="0.25"
     inkscape:showpageshadow="2"
     inkscape:pageopacity="0.0"
     inkscape:pagecheckerboard="0"
     inkscape:deskcolor="#d1d1d1"
     inkscape:zoom="5.6328706"
     inkscape:cx="66.83981"
     inkscape:cy="54.590283"
     inkscape:window-width="1920"
     inkscape:window-height="1011"
     inkscape:window-x="0"
     inkscape:window-y="32"
     inkscape:window-maximized="1"
     inkscape:current-layer="svg11300" />
  <title
     id="title4162">Adwaita Icon Template</title>
  <defs
     id="defs3">
    <linearGradient
       id="linearGradient272"
       inkscape:collect="always">
      <stop
         style="stop-color:#f3c68f;stop-opacity:1;"
         offset="0"
         id="stop272" />
      <stop
         style="stop-color:#9b7139;stop-opacity:1;"
         offset="1"
         id="stop273" />
    </linearGradient>
    <linearGradient
       id="swatch201"
       inkscape:swatch="solid">
      <stop
         style="stop-color:#c5a987;stop-opacity:1;"
         offset="0"
         id="stop201" />
    </linearGradient>
    <linearGradient
       id="linearGradient198"
       inkscape:collect="always">
      <stop
         style="stop-color:#e8b77c;stop-opacity:1;"
         offset="0.06463145"
         id="stop199" />
      <stop
         style="stop-color:#e8bf7c;stop-opacity:0.63007522;"
         offset="0.66983467"
         id="stop200" />
    </linearGradient>
    <linearGradient
       id="linearGradient191"
       inkscape:collect="always">
      <stop
         style="stop-color:#000000;stop-opacity:1;"
         offset="0"
         id="stop191" />
      <stop
         style="stop-color:#000000;stop-opacity:0;"
         offset="1"
         id="stop192" />
    </linearGradient>
    <linearGradient
       id="swatch161"
       inkscape:swatch="solid">
      <stop
         style="stop-color:#000000;stop-opacity:1;"
         offset="0"
         id="stop161" />
    </linearGradient>
    <inkscape:path-effect
       effect="fillet_chamfer"
       id="path-effect6"
       is_visible="true"
       lpeversion="1"
       nodesatellites_param="F,0,0,1,0,0,0,1 @ F,0,0,1,0,0,0,1 @ F,0,0,1,0,3.4801201,0,1 @ F,0,0,1,0,0.95188461,0,1 @ F,0,0,1,0,0,0,1 @ F,0,0,1,0,0,0,1 @ F,0,0,1,0,0,0,1 @ F,0,0,1,0,0,0,1 @ F,0,0,1,0,0,0,1 @ F,0,0,1,0,0,0,1"
       radius="0"
       unit="px"
       method="auto"
       mode="F"
       chamfer_steps="1"
       flexible="false"
       use_knot_distance="true"
       apply_no_radius="true"
       apply_with_radius="true"
       only_selected="false"
       hide_knots="false" />
    <linearGradient
       inkscape:collect="always"
       xlink:href="#linearGradient2"
       id="linearGradient4"
       x1="114.02682"
       y1="152.64653"
       x2="114.31027"
       y2="46.7131"
       gradientUnits="userSpaceOnUse" />
    <linearGradient
       id="linearGradient2"
       inkscape:collect="always">
      <stop
         style="stop-color:#000000;stop-opacity:1;"
         offset="0"
         id="stop1" />
      <stop
         style="stop-color:#431717;stop-opacity:1;"
         offset="1"
         id="stop2" />
    </linearGradient>
    <inkscape:path-effect
       effect="fillet_chamfer"
       id="path-effect3"
       is_visible="true"
       lpeversion="1"
       nodesatellites_param="F,0,0,1,0,0,0,1 @ F,0,0,1,0,0,0,1 @ F,0,0,1,0,0,0,1 @ F,0,0,1,0,0,0,1 @ F,0,0,1,0,0,0,1 @ F,0,0,1,0,0,0,1 @ F,0,0,1,0,0,0,1 @ F,0,0,1,0,0,0,1 @ F,0,0,1,0,0,0,1 @ F,0,0,1,0,0,0,1 @ F,0,0,1,0,0,0,1 @ F,0,0,1,0,0,0,1 @ F,0,0,1,0,0,0,1 @ F,0,0,1,0,0,0,1 @ F,0,0,1,0,0,0,1 @ F,0,0,1,0,0,0,1 @ F,0,0,1,0,0,0,1 @ F,0,0,1,0,0,0,1 @ F,0,0,1,0,0,0,1 @ F,0,0,1,0,0,0,1 @ F,0,0,1,0,0,0,1 @ F,0,0,1,0,0,0,1 @ F,0,0,1,0,0,0,1 @ F,0,0,1,0,0,0,1 @ F,0,0,1,0,0,0,1 @ F,0,0,1,0,0,0,1 @ F,0,0,1,0,0,0,1 @ F,0,0,1,0,0,0,1 @ F,0,0,1,0,0,0,1 @ F,0,0,1,0,0,0,1 @ F,0,0,1,0,0,0,1 @ F,0,0,1,0,0,0,1 @ F,0,0,1,0,0,0,1 @ F,0,0,1,0,0,0,1 @ F,0,0,1,0,0,0,1 @ F,0,0,1,0,0,0,1 @ F,0,0,1,0,0,0,1 @ F,0,0,1,0,0,0,1 @ F,0,0,1,0,0,0,1 @ F,0,0,1,0,0,0,1 @ F,0,0,1,0,0,0,1 @ F,0,0,1,0,0,0,1 @ F,0,0,1,0,0,0,1 @ F,0,0,1,0,0,0,1 @ F,0,0,1,0,0,0,1 @ F,0,0,1,0,0,0,1 @ F,0,0,1,0,0,0,1 @ F,0,0,1,0,0,0,1 @ F,0,0,1,0,0,0,1 @ F,0,0,1,0,0,0,1 @ F,0,0,1,0,0,0,1 @ F,0,0,1,0,0,0,1 @ F,0,0,1,0,0,0,1 @ F,0,0,1,0,0,0,1 @ F,0,0,1,0,0,0,1 @ F,0,0,1,0,0,0,1 @ F,0,0,1,0,0,0,1 @ F,0,0,1,0,0,0,1 @ F,0,0,1,0,0,0,1 @ F,0,0,1,0,0,0,1 @ F,0,0,1,0,0,0,1 @ F,0,0,1,0,0,0,1 @ F,0,0,1,0,0,0,1 @ F,0,0,1,0,0,0,1 @ F,0,0,1,0,0,0,1 @ F,0,0,1,0,0,0,1"
       radius="0"
       unit="px"
       method="auto"
       mode="F"
       chamfer_steps="1"
       flexible="false"
       use_knot_distance="true"
       apply_no_radius="true"
       apply_with_radius="true"
       only_selected="false"
       hide_knots="false" />
    <inkscape:path-effect
       effect="fillet_chamfer"
       id="path-effect2"
       is_visible="true"
       lpeversion="1"
       nodesatellites_param="F,0,0,1,0,0,0,1 @ F,0,0,1,0,0,0,1 @ F,0,0,1,0,3.4801201,0,1 @ F,0,0,1,0,0.95188461,0,1 @ F,0,0,1,0,0,0,1 @ F,0,0,1,0,0,0,1 @ F,0,0,1,0,0,0,1 @ F,0,0,1,0,0,0,1 @ F,0,0,1,0,0,0,1 @ F,0,0,1,0,0,0,1"
       radius="0"
       unit="px"
       method="auto"
       mode="F"
       chamfer_steps="1"
       flexible="false"
       use_knot_distance="true"
       apply_no_radius="true"
       apply_with_radius="true"
       only_selected="false"
       hide_knots="false" />
    <linearGradient
       inkscape:collect="always"
       xlink:href="#linearGradient8"
       id="linearGradient9"
       x1="72.420799"
       y1="165.83786"
       x2="75.311707"
       y2="143.89102"
       gradientUnits="userSpaceOnUse" />
    <linearGradient
       id="linearGradient8"
       inkscape:collect="always">
      <stop
         style="stop-color:#ad0000;stop-opacity:1;"
         offset="0"
         id="stop8" />
      <stop
         style="stop-color:#6f0000;stop-opacity:1;"
         offset="1"
         id="stop9" />
    </linearGradient>
    <linearGradient
       inkscape:collect="always"
       xlink:href="#linearGradient198"
       id="linearGradient271"
       gradientUnits="userSpaceOnUse"
       x1="114.94999"
       y1="149.66449"
       x2="115.18854"
       y2="119.95922" />
    <radialGradient
       inkscape:collect="always"
       xlink:href="#linearGradient272"
       id="radialGradient273"
       cx="63.368954"
       cy="44.334801"
       fx="63.368954"
       fy="44.334801"
       r="14.217133"
       gradientTransform="matrix(1.4789857,0,0,2.0037523,-30.352826,-44.50116)"
       gradientUnits="userSpaceOnUse" />
    <linearGradient
       inkscape:collect="always"
       xlink:href="#linearGradient191"
       id="linearGradient273"
       gradientUnits="userSpaceOnUse"
       x1="73.512688"
       y1="135.26315"
       x2="154.66356"
       y2="135.26315" />
    <radialGradient
       inkscape:collect="always"
       xlink:href="#linearGradient272"
       id="radialGradient274"
       gradientUnits="userSpaceOnUse"
       gradientTransform="matrix(1.4789857,0,0,2.0037523,-30.352826,-44.50116)"
       cx="63.368954"
       cy="44.334801"
       fx="63.368954"
       fy="44.334801"
       r="14.217133" />
    <radialGradient
       inkscape:collect="always"
       xlink:href="#linearGradient272"
       id="radialGradient275"
       gradientUnits="userSpaceOnUse"
       gradientTransform="matrix(1.4789857,0,0,2.0037523,-30.352826,-44.50116)"
       cx="63.368954"
       cy="44.334801"
       fx="63.368954"
       fy="44.334801"
       r="14.217133" />
  </defs>
  <metadata
     id="metadata4">
    <rdf:RDF>
      <cc:Work
         rdf:about="">
        <dc:format>image/svg+xml</dc:format>
        <dc:type
           rdf:resource="http://purl.org/dc/dcmitype/StillImage" />
        <dc:creator>
          <cc:Agent>
            <dc:title>GNOME Design Team</dc:title>
          </cc:Agent>
        </dc:creator>
        <dc:source />
        <cc:license
           rdf:resource="http://creativecommons.org/licenses/by-sa/4.0/" />
        <dc:title>Adwaita Icon Template</dc:title>
        <dc:subject>
          <rdf:Bag />
        </dc:subject>
        <dc:date />
        <dc:rights>
          <cc:Agent>
            <dc:title />
          </cc:Agent>
        </dc:rights>
        <dc:publisher>
          <cc:Agent>
            <dc:title />
          </cc:Agent>
        </dc:publisher>
        <dc:identifier />
        <dc:relation />
        <dc:language />
        <dc:coverage />
        <dc:description />
        <dc:contributor>
          <cc:Agent>
            <dc:title />
          </cc:Agent>
        </dc:contributor>
      </cc:Work>
      <cc:License
         rdf:about="http://creativecommons.org/licenses/by-sa/4.0/">
        <cc:permits
           rdf:resource="http://creativecommons.org/ns#Reproduction" />
        <cc:permits
           rdf:resource="http://creativecommons.org/ns#Distribution" />
        <cc:requires
           rdf:resource="http://creativecommons.org/ns#Notice" />
        <cc:requires
           rdf:resource="http://creativecommons.org/ns#Attribution" />
        <cc:permits
           rdf:resource="http://creativecommons.org/ns#DerivativeWorks" />
        <cc:requires
           rdf:resource="http://creativecommons.org/ns#ShareAlike" />
      </cc:License>
    </rdf:RDF>
  </metadata>
  <g
     id="g8"
     style="display:inline;mix-blend-mode:normal;stroke-width:1.0002;stroke-dasharray:none;opacity:1"
     transform="matrix(1.1903732,0,0,1.0434589,-72.011325,-40.013133)">
    <path
       d="m 85.019547,46.65423 c -0.484393,0 -1.130329,0.03833 -1.696603,0.111541 -1.02387,0.132374 -2.436984,0.44703 -3.758878,0.984516 -0.420927,0.17115 -0.827183,0.372695 -1.223697,0.587561 -0.396515,0.214867 -0.781407,0.448269 -1.153418,0.699182 -0.372012,0.250914 -0.73122,0.519435 -1.076421,0.804086 -0.3452,0.284651 -0.676107,0.585673 -0.992187,0.901753 -0.31608,0.31608 -0.617103,0.647504 -0.901754,0.992705 -0.284651,0.3452 -0.553172,0.704408 -0.804085,1.07642 -0.250913,0.372011 -0.484316,0.756387 -0.699182,1.152901 -0.214867,0.396514 -0.41105,0.80499 -0.587561,1.223698 -0.176511,0.418708 -0.333376,0.847634 -0.469222,1.286226 -0.135847,0.438593 -0.250775,0.886902 -0.343648,1.343071 -0.09287,0.456168 -0.163766,0.92021 -0.211357,1.391646 -0.04759,0.471436 -0.07183,0.950144 -0.07183,1.434538 v 78.233466 c 0,0.4844 0.02424,0.96259 0.07183,1.43402 0.04759,0.47144 0.118483,0.936 0.211357,1.39217 0.09287,0.45616 0.207801,0.90396 0.343648,1.34255 0.135846,0.43859 0.292711,0.86803 0.469222,1.28674 0.176511,0.41871 0.372694,0.82667 0.587561,1.22318 0.214866,0.39652 0.448269,0.78141 0.699182,1.15342 0.250913,0.37201 0.519434,0.73122 0.804085,1.07642 0.284651,0.3452 0.585674,0.67663 0.901754,0.99271 0.31608,0.31608 0.646987,0.6171 0.992187,0.90175 0.345201,0.28465 0.704409,0.55265 1.076421,0.80357 0.372011,0.25091 0.756903,0.48431 1.153418,0.69918 0.396514,0.21487 0.80499,0.41157 1.223697,0.58808 0.418708,0.17651 0.847634,0.33286 1.286227,0.4687 0.438592,0.13585 0.886902,0.25078 1.34307,0.34365 0.456169,0.0929 0.920211,0.16377 1.391647,0.21136 0.471435,0.0476 0.950144,0.0724 1.434537,0.0724 h 57.838333 c 0.48439,0 0.9631,-0.0248 1.43454,-0.0724 0.47143,-0.0476 0.93547,-0.11849 1.39164,-0.21136 0.45617,-0.0929 0.90448,-0.2078 1.34307,-0.34365 0.43859,-0.13584 0.86752,-0.29219 1.28623,-0.4687 0.41871,-0.17651 0.82718,-0.37321 1.2237,-0.58808 0.39651,-0.21487 0.7814,-0.44827 1.15341,-0.69918 0.37202,-0.25092 0.73122,-0.51892 1.07642,-0.80357 0.3452,-0.28465 0.67611,-0.58567 0.99219,-0.90175 0.31608,-0.31608 0.6171,-0.64751 0.90176,-0.99271 0.28465,-0.3452 0.55317,-0.70441 0.80408,-1.07642 0.25091,-0.37201 0.48432,-0.7569 0.69918,-1.15342 0.21487,-0.39651 0.41105,-0.80447 0.58756,-1.22318 0.17651,-0.41871 0.33338,-0.84815 0.46923,-1.28674 0.13584,-0.43859 0.25077,-0.88639 0.34364,-1.34255 0.0929,-0.45617 0.16377,-0.92073 0.21136,-1.39217 0.0476,-0.47143 0.0718,-0.94962 0.0718,-1.43402 V 60.644074 c 0,-0.484394 -0.0242,-0.963102 -0.0718,-1.434538 -0.0476,-0.471436 -0.11848,-0.935478 -0.21136,-1.391646 -0.0929,-0.456169 -0.2078,-0.904478 -0.34364,-1.343071 -0.13585,-0.438592 -0.29272,-0.867518 -0.46923,-1.286226 -0.17651,-0.418708 -0.37269,-0.827184 -0.58756,-1.223698 -0.21486,-0.396514 -0.44827,-0.78089 -0.69918,-1.152901 -0.25091,-0.372012 -0.51943,-0.73122 -0.80408,-1.07642 -0.28466,-0.345201 -0.58568,-0.676625 -0.90176,-0.992705 -0.31608,-0.31608 -0.64699,-0.617102 -0.99219,-0.901753 -0.3452,-0.284651 -0.7044,-0.553172 -1.07642,-0.804086 -0.37201,-0.250913 -0.7569,-0.484315 -1.15341,-0.699182 -0.39652,-0.214866 -0.80499,-0.41105 -1.2237,-0.587561 -0.41871,-0.176511 -0.84764,-0.333375 -1.28623,-0.469222 -0.43859,-0.135846 -0.8869,-0.250775 -1.34307,-0.343648 -0.45617,-0.09287 -0.92021,-0.163766 -1.39164,-0.211357 -0.47144,-0.04759 -0.95015,-0.07183 -1.43454,-0.07183 z"
       style="display:inline;fill:url(#linearGradient4);stroke:url(#linearGradient4);stroke-width:1.0002;stroke-linecap:round;stroke-linejoin:round;stroke-miterlimit:67.1;stroke-dasharray:none;stroke-opacity:1"
       id="path10"
       sodipodi:nodetypes="ssssssssssssssssssssssssssssscsssscssssssssssssssssssssssssssssssss"
       inkscape:path-effect="#path-effect3"
       inkscape:original-d="m 85.019547,46.65423 c -0.484393,0 -1.130329,0.03833 -1.696603,0.111541 -1.02387,0.132374 -2.436984,0.44703 -3.758878,0.984516 -0.420927,0.17115 -0.827183,0.372695 -1.223697,0.587561 -0.396515,0.214867 -0.781407,0.448269 -1.153418,0.699182 -0.372012,0.250914 -0.73122,0.519435 -1.076421,0.804086 -0.3452,0.284651 -0.676107,0.585673 -0.992187,0.901753 -0.31608,0.31608 -0.617103,0.647504 -0.901754,0.992705 -0.284651,0.3452 -0.553172,0.704408 -0.804085,1.07642 -0.250913,0.372011 -0.484316,0.756387 -0.699182,1.152901 -0.214867,0.396514 -0.41105,0.80499 -0.587561,1.223698 -0.176511,0.418708 -0.333376,0.847634 -0.469222,1.286226 -0.135847,0.438593 -0.250775,0.886902 -0.343648,1.343071 -0.09287,0.456168 -0.163766,0.92021 -0.211357,1.391646 -0.04759,0.471436 -0.07183,0.950144 -0.07183,1.434538 v 78.233466 c 0,0.4844 0.02424,0.96259 0.07183,1.43402 0.04759,0.47144 0.118483,0.936 0.211357,1.39217 0.09287,0.45616 0.207801,0.90396 0.343648,1.34255 0.135846,0.43859 0.292711,0.86803 0.469222,1.28674 0.176511,0.41871 0.372694,0.82667 0.587561,1.22318 0.214866,0.39652 0.448269,0.78141 0.699182,1.15342 0.250913,0.37201 0.519434,0.73122 0.804085,1.07642 0.284651,0.3452 0.585674,0.67663 0.901754,0.99271 0.31608,0.31608 0.646987,0.6171 0.992187,0.90175 0.345201,0.28465 0.704409,0.55265 1.076421,0.80357 0.372011,0.25091 0.756903,0.48431 1.153418,0.69918 0.396514,0.21487 0.80499,0.41157 1.223697,0.58808 0.418708,0.17651 0.847634,0.33286 1.286227,0.4687 0.438592,0.13585 0.886902,0.25078 1.34307,0.34365 0.456169,0.0929 0.920211,0.16377 1.391647,0.21136 0.471435,0.0476 0.950144,0.0724 1.434537,0.0724 h 57.838333 c 0.48439,0 0.9631,-0.0248 1.43454,-0.0724 0.47143,-0.0476 0.93547,-0.11849 1.39164,-0.21136 0.45617,-0.0929 0.90448,-0.2078 1.34307,-0.34365 0.43859,-0.13584 0.86752,-0.29219 1.28623,-0.4687 0.41871,-0.17651 0.82718,-0.37321 1.2237,-0.58808 0.39651,-0.21487 0.7814,-0.44827 1.15341,-0.69918 0.37202,-0.25092 0.73122,-0.51892 1.07642,-0.80357 0.3452,-0.28465 0.67611,-0.58567 0.99219,-0.90175 0.31608,-0.31608 0.6171,-0.64751 0.90176,-0.99271 0.28465,-0.3452 0.55317,-0.70441 0.80408,-1.07642 0.25091,-0.37201 0.48432,-0.7569 0.69918,-1.15342 0.21487,-0.39651 0.41105,-0.80447 0.58756,-1.22318 0.17651,-0.41871 0.33338,-0.84815 0.46923,-1.28674 0.13584,-0.43859 0.25077,-0.88639 0.34364,-1.34255 0.0929,-0.45617 0.16377,-0.92073 0.21136,-1.39217 0.0476,-0.47143 0.0718,-0.94962 0.0718,-1.43402 V 60.644074 c 0,-0.484394 -0.0242,-0.963102 -0.0718,-1.434538 -0.0476,-0.471436 -0.11848,-0.935478 -0.21136,-1.391646 -0.0929,-0.456169 -0.2078,-0.904478 -0.34364,-1.343071 -0.13585,-0.438592 -0.29272,-0.867518 -0.46923,-1.286226 -0.17651,-0.418708 -0.37269,-0.827184 -0.58756,-1.223698 -0.21486,-0.396514 -0.44827,-0.78089 -0.69918,-1.152901 -0.25091,-0.372012 -0.51943,-0.73122 -0.80408,-1.07642 -0.28466,-0.345201 -0.58568,-0.676625 -0.90176,-0.992705 -0.31608,-0.31608 -0.64699,-0.617102 -0.99219,-0.901753 -0.3452,-0.284651 -0.7044,-0.553172 -1.07642,-0.804086 -0.37201,-0.250913 -0.7569,-0.484315 -1.15341,-0.699182 -0.39652,-0.214866 -0.80499,-0.41105 -1.2237,-0.587561 -0.41871,-0.176511 -0.84764,-0.333375 -1.28623,-0.469222 -0.43859,-0.135846 -0.8869,-0.250775 -1.34307,-0.343648 -0.45617,-0.09287 -0.92021,-0.163766 -1.39164,-0.211357 -0.47144,-0.04759 -0.95015,-0.07183 -1.43454,-0.07183 z"
       sodipodi:insensitive="true" />
    <path
       id="path2"
       style="display:inline;mix-blend-mode:normal;fill:url(#linearGradient271);stroke:url(#linearGradient273);stroke-width:1.0002;stroke-linecap:square;stroke-linejoin:miter;stroke-dasharray:none;paint-order:normal"
       d="m 85.182736,128.63591 h 25.641194 c 0,0 22.29852,0.22445 32.43389,-0.0228 1.91891,-0.0468 4.97151,-0.63382 6.60182,-1.64601 3.44003,-2.13577 4.13173,-4.62968 4.23229,-5.95927 0.0396,-0.52293 0.0244,-0.65036 0.0304,-0.27886 0.009,0.57384 0.0172,1.45851 0.0291,2.6709 0.0332,3.38345 0.006,13.1076 -0.28047,15.87661 -0.61439,5.93008 -4.9818,10.64055 -11.16995,10.64055 H 85.182736 c -6.188152,0 -11.169949,-4.74569 -11.169949,-10.64055 0,-5.89487 4.981797,-10.64056 11.169949,-10.64056 z"
       sodipodi:nodetypes="scccsssssss"
       clip-path="none"
       inkscape:path-effect="#path-effect2"
       inkscape:original-d="m 85.182736,128.63591 h 25.641194 c 0,0 29.05168,0.29243 35.90678,-0.15797 8.37753,-3.15121 7.33437,-8.41928 7.33437,-8.41928 0.0523,-0.54203 0.0584,0.49915 0.0863,3.34121 0.0332,3.38345 0.006,13.1076 -0.28047,15.87661 -0.61439,5.93008 -4.9818,10.64055 -11.16995,10.64055 H 85.182736 c -6.188152,0 -11.169949,-4.74569 -11.169949,-10.64055 0,-5.89487 4.981797,-10.64056 11.169949,-10.64056 z"
       sodipodi:insensitive="true"
       transform="matrix(1.0012062,0,0,0.79378494,-0.137609,30.968565)" />
    <path
       style="display:inline;enable-background:new;mix-blend-mode:normal;stroke-width:0;stroke-dasharray:none;fill:url(#linearGradient9);fill-opacity:1;stroke:none;stroke-linecap:round;stroke-linejoin:round;stroke-miterlimit:67.1;stroke-dashoffset:0;stroke-opacity:1;paint-order:markers fill stroke"
       id="path8"
       d="m 73.289945,143.97686 c -0.04693,0.58765 -0.152378,1.16875 -0.252297,1.74918 -0.126731,0.82463 -0.214251,1.65455 -0.313543,2.48289 -0.09161,0.66244 0.0021,1.31668 0.141254,1.96378 0.130446,0.57612 0.428594,1.0862 0.701587,1.60282 0.279142,0.5104 0.568329,1.01475 0.90122,1.4921 0.312024,0.40004 0.619592,0.79998 0.871803,1.24072 0.284128,0.55496 0.371473,1.18163 0.467463,1.79064 0.09597,0.78779 0.0052,1.58191 -0.240907,2.33314 -0.163679,0.39807 -0.319273,0.82191 -0.606044,1.15241 -0.147536,0.17004 -0.267584,0.24777 -0.445554,0.38472 -0.402382,0.31572 -0.833541,0.58611 -1.24339,0.89106 -0.460238,0.34693 -0.872782,0.75956 -1.256287,1.18918 -0.324682,0.421 -0.616057,0.87457 -0.887284,1.33297 -0.218871,0.39389 -0.297056,0.84369 -0.415876,1.27384 -0.04785,0.17213 -0.08429,0.3467 -0.130812,0.51913 l 3.811265,2.06249 v 0 c 0.04168,-0.17457 0.07031,-0.35067 0.109514,-0.52582 0.09999,-0.39836 0.189946,-0.80466 0.355578,-1.1816 0.23729,-0.44531 0.527716,-0.86244 0.832106,-1.26405 0.35479,-0.41912 0.766226,-0.78441 1.213054,-1.10355 0.416312,-0.29997 0.844373,-0.58302 1.229734,-0.924 0.216464,-0.18264 0.329791,-0.26087 0.509759,-0.48303 0.302892,-0.37389 0.471112,-0.83227 0.634955,-1.2778 0.129382,-0.37116 0.172321,-0.44946 0.245012,-0.83624 0.102445,-0.54505 0.10946,-1.10872 0.108571,-1.66093 -0.07743,-0.63659 -0.171375,-1.28342 -0.369894,-1.89371 -0.204649,-0.49238 -0.516051,-0.92065 -0.865119,-1.322 -0.348863,-0.45132 -0.633671,-0.94226 -0.924256,-1.43236 -0.259332,-0.49749 -0.559965,-0.97884 -0.742762,-1.51153 -0.17854,-0.60038 -0.279537,-1.21498 -0.239904,-1.84356 0.0762,-0.81944 0.161579,-1.64022 0.301103,-2.45138 0.115961,-0.57234 0.816993,-3.12879 0.942426,-3.69906 z"
       sodipodi:nodetypes="cccccccccscccccccscccccscsccccccccc"
       transform="matrix(0.91092819,0,0,0.91092818,14.350528,7.4235344)"
       sodipodi:insensitive="true" />
  </g>
  <g
     id="g200"
     style="fill:none;fill-opacity:1;stroke:url(#radialGradient273)"
     transform="translate(0,4.4751305)">
    <path
       style="display:inline;fill:none;fill-opacity:1;stroke:url(#radialGradient274);stroke-width:8.09868;stroke-opacity:1;enable-background:new"
       d="M 63.727202,24.591664 V 64.077941"
       id="path1" />
    <path
       style="display:inline;fill:none;fill-opacity:1;stroke:url(#radialGradient275);stroke-width:8.099;stroke-dasharray:none;stroke-opacity:1;enable-background:new"
       d="M 49.151822,37.543783 H 77.586089"
       id="path3"
       sodipodi:nodetypes="cc" />
  </g>
</svg>
